<svg width="19" height="14" viewBox="0 0 19 14" fill="none" xmlns="http://www.w3.org/2000/svg">
<path d="M13.878 0C12.2379 0 10.4716 0.336437 9.25203 1.26164C8.03244 0.336437 6.26615 0 4.62601 0C3.40643 0 2.11114 0.185041 1.02613 0.664464C0.412136 0.942025 0 1.5392 0 2.22049V11.708C0 12.8014 1.02613 13.6089 2.08591 13.3397C2.91018 13.1295 3.78492 13.0369 4.62601 13.0369C5.93812 13.0369 7.33433 13.2556 8.4614 13.8108C8.96606 14.0631 9.538 14.0631 10.0342 13.8108C11.1613 13.2472 12.5575 13.0369 13.8696 13.0369C14.7107 13.0369 15.5855 13.1295 16.4097 13.3397C17.4695 13.6173 18.4956 12.8099 18.4956 11.708V2.22049C18.4956 1.5392 18.0835 0.942025 17.4695 0.664464C16.3929 0.185041 15.0976 0 13.878 0ZM16.8219 10.7071C16.8219 11.237 16.334 11.6239 15.8126 11.5314C15.1817 11.4136 14.5257 11.3632 13.878 11.3632C12.4482 11.3632 10.3875 11.9099 9.25203 12.6248V2.94383C10.3875 2.2289 12.4482 1.68219 13.878 1.68219C14.6518 1.68219 15.4172 1.75789 16.149 1.91769C16.5359 2.0018 16.8219 2.34665 16.8219 2.74196V10.7071Z" fill="#323232"/>
<path d="M10.9173 5.47552C10.6481 5.47552 10.4042 5.3073 10.3201 5.03815C10.2107 4.71013 10.3958 4.34846 10.7238 4.24752C12.0191 3.82698 13.6929 3.6924 15.2321 3.86903C15.5769 3.91109 15.8292 4.22229 15.7872 4.56714C15.7451 4.91199 15.4339 5.16432 15.0891 5.12226C13.7265 4.96245 12.2378 5.08862 11.1107 5.45029C11.0434 5.4587 10.9761 5.47552 10.9173 5.47552Z" fill="#323232"/>
<path d="M10.9173 7.71283C10.6481 7.71283 10.4042 7.54461 10.3201 7.27546C10.2107 6.94743 10.3958 6.58576 10.7238 6.48483C12.0107 6.06428 13.6929 5.92971 15.2321 6.10634C15.5769 6.14839 15.8292 6.4596 15.7872 6.80444C15.7451 7.14929 15.4339 7.40162 15.0891 7.35957C13.7265 7.19976 12.2378 7.32592 11.1107 7.68759C11.0434 7.70441 10.9761 7.71283 10.9173 7.71283Z" fill="#323232"/>
<path d="M10.9173 9.95014C10.6481 9.95014 10.4042 9.78192 10.3201 9.51277C10.2107 9.18474 10.3958 8.82307 10.7238 8.72214C12.0107 8.30159 13.6929 8.16702 15.2321 8.34365C15.5769 8.3857 15.8292 8.69691 15.7872 9.04176C15.7451 9.38661 15.4339 9.63052 15.0891 9.59688C13.7265 9.43707 12.2378 9.56323 11.1107 9.9249C11.0434 9.94173 10.9761 9.95014 10.9173 9.95014Z" fill="#323232"/>
</svg>
