<svg width="217" height="233" viewBox="0 0 217 233" fill="none" xmlns="http://www.w3.org/2000/svg">
<path d="M110.579 93.5072H86.6611V117.425H110.579V93.5072Z" fill="#F4C6FF" stroke="#DB54FF" stroke-linecap="round" stroke-linejoin="round"/>
<path d="M153.611 128.466L135.59 144.193L151.316 162.214L169.337 146.487L153.611 128.466Z" fill="#F4C6FF" stroke="#DB54FF" stroke-linecap="round" stroke-linejoin="round"/>
<path d="M19.021 21.8752L1 37.6015L16.7263 55.6225L34.7473 39.8962L19.021 21.8752Z" fill="#DB54FF" stroke="#DB54FF" stroke-linecap="round" stroke-linejoin="round"/>
<path d="M19.021 118.77L1 134.496L16.7263 152.517L34.7473 136.791L19.021 118.77Z" fill="white" stroke="#DB54FF" stroke-linecap="round" stroke-linejoin="round"/>
<path d="M125.606 20.7933L107.585 36.5196L123.311 54.5406L141.332 38.8143L125.606 20.7933Z" fill="#F4C6FF" stroke="#DB54FF" stroke-linecap="round" stroke-linejoin="round"/>
<path d="M108.124 133.704L113.211 143.975L124.548 145.622L116.344 153.617L118.282 164.906L108.124 159.576L97.9976 164.906L99.9194 153.617L91.7314 145.622L103.053 143.975L108.124 133.704Z" fill="#DB54FF" stroke="#DB54FF" stroke-linecap="round" stroke-linejoin="round"/>
<path d="M21.7706 60.8194L26.8417 71.0908L38.179 72.738L29.9748 80.7323L31.9128 92.0372L21.7706 86.6916L11.6285 92.0372L13.5665 80.7323L5.3623 72.738L16.6996 71.0908L21.7706 60.8194Z" fill="#F4C6FF" stroke="#DB54FF" stroke-linecap="round" stroke-linejoin="round"/>
<path d="M171.496 3.82624L168.008 14.7436L175.017 23.8037L163.567 23.8522L157.107 33.316L153.522 22.4471L142.523 19.2333L151.761 12.4503L151.422 1L160.724 7.70222L171.496 3.82624Z" fill="white" stroke="#DB54FF" stroke-linecap="round" stroke-linejoin="round"/>
<path d="M95.0908 184.867L106.46 186.272L114.067 177.712L116.247 188.953L126.745 193.555L116.716 199.095L115.601 210.497L107.219 202.664L96.0437 205.135L100.889 194.751L95.0908 184.867Z" fill="#F4C6FF" stroke="#DB54FF" stroke-linecap="round" stroke-linejoin="round"/>
<path d="M158.953 105.728C161.096 96.6938 155.508 87.6331 146.474 85.4908C137.439 83.3485 128.379 88.9357 126.236 97.9702C124.094 107.005 129.681 116.065 138.716 118.208C147.75 120.35 156.811 114.763 158.953 105.728Z" fill="white" stroke="#DB54FF" stroke-linecap="round" stroke-linejoin="round"/>
<path d="M89.2302 220.762C95.7957 214.197 95.7957 203.552 89.2302 196.986C82.6647 190.421 72.0199 190.421 65.4543 196.986C58.8888 203.552 58.8888 214.197 65.4543 220.762C72.0199 227.328 82.6647 227.328 89.2302 220.762Z" fill="white" stroke="#DB54FF" stroke-linecap="round" stroke-linejoin="round"/>
<path d="M200.589 65.6563C209.285 62.403 213.698 52.7159 210.445 44.0194C207.192 35.3229 197.504 30.9103 188.808 34.1635C180.111 37.4167 175.699 47.1039 178.952 55.8003C182.205 64.4968 191.892 68.9095 200.589 65.6563Z" fill="#DB54FF" stroke="#DB54FF" stroke-linecap="round" stroke-linejoin="round"/>
<path d="M85.7522 75.5796C87.8945 66.5451 82.3073 57.4844 73.2728 55.3421C64.2383 53.1998 55.1776 58.787 53.0353 67.8215C50.893 76.8561 56.4802 85.9167 65.5147 88.059C74.5492 90.2014 83.6099 84.6141 85.7522 75.5796Z" fill="white" stroke="#DB54FF" stroke-linecap="round" stroke-linejoin="round"/>
<path d="M70.2692 123.029L43.3957 106.136L42.2168 137.855L70.2692 123.029Z" fill="#DB54FF" stroke="#DB54FF" stroke-linecap="round" stroke-linejoin="round"/>
<path d="M196.11 111.659L190.975 80.3444L166.427 100.451L196.11 111.659Z" fill="#DB54FF" stroke="#DB54FF" stroke-linecap="round" stroke-linejoin="round"/>
<path d="M80.4764 182.105L81.7522 150.403L53.6514 165.147L80.4764 182.105Z" fill="#F4C6FF" stroke="#DB54FF" stroke-linecap="round" stroke-linejoin="round"/>
<path d="M162.453 75.4677L163.729 43.7492L135.628 58.5102L162.453 75.4677Z" fill="#F4C6FF" stroke="#DB54FF" stroke-linecap="round" stroke-linejoin="round"/>
<path d="M52.7305 14.7594L69.2841 41.8428L84.4651 13.968L52.7305 14.7594Z" fill="#F4C6FF" stroke="#DB54FF" stroke-linecap="round" stroke-linejoin="round"/>
</svg>
