<svg width="13" height="14" viewBox="0 0 13 14" fill="none" xmlns="http://www.w3.org/2000/svg">
<path d="M11.2 1.4H10.5V0.7C10.5 0.315 10.185 0 9.8 0C9.415 0 9.1 0.315 9.1 0.7V1.4H3.5V0.7C3.5 0.315 3.185 0 2.8 0C2.415 0 2.1 0.315 2.1 0.7V1.4H1.4C0.623 1.4 0.00699999 2.03 0.00699999 2.8L0 12.6C0 13.37 0.623 14 1.4 14H11.2C11.97 14 12.6 13.37 12.6 12.6V2.8C12.6 2.03 11.97 1.4 11.2 1.4ZM11.2 11.9C11.2 12.285 10.885 12.6 10.5 12.6H2.1C1.715 12.6 1.4 12.285 1.4 11.9V4.9H11.2V11.9ZM2.8 6.3H4.2V7.7H2.8V6.3ZM5.6 6.3H7V7.7H5.6V6.3ZM8.4 6.3H9.8V7.7H8.4V6.3Z" fill="#323232"/>
</svg>
