<svg width="389" height="359" viewBox="0 0 389 359" fill="none" xmlns="http://www.w3.org/2000/svg">
<path d="M288.057 287.022L203.37 216.167L94.125 275.867L178.833 349.807L288.057 287.022Z" fill="#D6E5F5" stroke="#263238" stroke-opacity="0.4" stroke-linecap="round" stroke-linejoin="round"/>
<path d="M374.42 84.4067L306.099 123.961" stroke="#263238" stroke-opacity="0.4" stroke-linecap="round" stroke-linejoin="round"/>
<path d="M388.864 76.0503L381.877 80.0956" stroke="#263238" stroke-opacity="0.4" stroke-linecap="round" stroke-linejoin="round"/>
<path d="M265.44 133.462V31.9804L350.128 102.856V204.337L265.44 133.462Z" fill="#D6E5F5" stroke="#263238" stroke-opacity="0.4" stroke-linecap="round" stroke-linejoin="round"/>
<path d="M33.1377 72.9652L82.6628 113.868" stroke="#263238" stroke-opacity="0.4" stroke-linecap="round" stroke-linejoin="round"/>
<path d="M21.9014 63.6895L27.3565 68.1843" stroke="#263238" stroke-opacity="0.4" stroke-linecap="round" stroke-linejoin="round"/>
<path d="M155.807 30.6727V132.134L46.582 191.834V90.3725L155.807 30.6727Z" fill="#D6E5F5" stroke="#263238" stroke-opacity="0.4" stroke-linecap="round" stroke-linejoin="round"/>
<path d="M203.37 72.9244L94.125 132.624V234.106L178.833 308.066L288.057 245.281V143.8L203.37 72.9244Z" stroke="#263238" stroke-opacity="0.4" stroke-linecap="round" stroke-linejoin="round" stroke-dasharray="3 3"/>
<path d="M94.125 132.624L178.833 206.585L286.341 144.331" stroke="#263238" stroke-opacity="0.4" stroke-linecap="round" stroke-linejoin="round" stroke-dasharray="3 3"/>
<path d="M178.833 206.585V308.066" stroke="#263238" stroke-opacity="0.4" stroke-linecap="round" stroke-linejoin="round" stroke-dasharray="3 3"/>
<path d="M203.37 72.9244V174.406L269.138 228.794" stroke="#263238" stroke-opacity="0.4" stroke-linecap="round" stroke-linejoin="round" stroke-dasharray="3 3"/>
<path d="M203.371 174.406L108.836 225.565" stroke="#263238" stroke-opacity="0.4" stroke-linecap="round" stroke-linejoin="round" stroke-dasharray="3 3"/>
<path d="M42.6182 169.604V271.086L127.326 345.047V243.565L42.6182 169.604Z" fill="#D6E5F5" stroke="#263238" stroke-opacity="0.4" stroke-linecap="round" stroke-linejoin="round"/>
<path d="M6.6594 296.339L1 299.628" stroke="#263238" stroke-opacity="0.4" stroke-linecap="round" stroke-linejoin="round"/>
<path d="M72.8356 258.03L12.625 292.886" stroke="#263238" stroke-opacity="0.4" stroke-linecap="round" stroke-linejoin="round"/>
<path d="M83.7664 251.717L77.9844 255.068" stroke="#263238" stroke-opacity="0.4" stroke-linecap="round" stroke-linejoin="round"/>
<path d="M225.538 358V256.519L334.783 193.734V295.215L225.538 358Z" fill="#D6E5F5" stroke="#263238" stroke-opacity="0.4" stroke-linecap="round" stroke-linejoin="round"/>
<path d="M346.021 329.601L352.334 334.831" stroke="#263238" stroke-opacity="0.4" stroke-linecap="round" stroke-linejoin="round"/>
<path d="M283.42 277.644L341.771 326.066" stroke="#263238" stroke-opacity="0.4" stroke-linecap="round" stroke-linejoin="round"/>
<path d="M288.057 89.6575L203.37 18.7819L94.125 78.4816L178.833 152.442L288.057 89.6575Z" fill="#D6E5F5" stroke="#263238" stroke-opacity="0.4" stroke-linecap="round" stroke-linejoin="round"/>
<path d="M189.641 5.99195V-5" stroke="#263238" stroke-opacity="0.4" stroke-linecap="round" stroke-linejoin="round"/>
<path d="M189.641 80.8516V13.7149" stroke="#263238" stroke-opacity="0.4" stroke-linecap="round" stroke-linejoin="round"/>
</svg>
