<svg width="259" height="362" viewBox="0 0 259 362" fill="none" xmlns="http://www.w3.org/2000/svg">
<path opacity="0.7" d="M351.556 192.284C355.079 167.765 352.149 142.288 342.837 117.013C326.543 72.8258 293.452 33.0579 250.417 13.0074C233.117 4.80872 214.276 0.378174 195.138 0.00865803C161.041 -0.405676 132.229 14.0798 108.271 37.2906C89.526 55.4319 71.9496 75.7342 48.9095 88.6273C27.0954 100.814 7.27831 117.606 1.42493 143.449C-3.75462 166.327 5.71957 190.017 21.2095 206.899C31.3169 217.916 44.6555 225.317 54.8522 236.219C68.5155 250.843 66.7701 264.134 67.9066 282.877C70.2853 322.035 104.683 349.04 140.274 358.302C184.649 369.846 226.216 353.281 259.526 323.652C281.056 304.503 303.178 285.387 320.966 262.582C337.811 240.956 347.992 217.111 351.556 192.284Z" fill="#F4C6FF" fill-opacity="0.5"/>
</svg>
