<svg width="803" height="43" viewBox="0 0 803 43" fill="none" xmlns="http://www.w3.org/2000/svg">
<path d="M166 22L717 22" stroke="#263238" stroke-opacity="0.4" stroke-linecap="round" stroke-linejoin="round" stroke-dasharray="3 3"/>
<g opacity="0.3">
<path d="M733 18.8L733 19.61L733 25.2299L733 26.0399L769.7 41.84L787.65 34.0699L792.47 34.0699L792.47 22.8199L792.47 22.02L792.47 10.77L787.65 10.77L769.7 2.99997L733 18.8Z" stroke="#D32EFF" stroke-linecap="round" stroke-linejoin="round"/>
<path d="M769.43 17.0599C768.37 17.0599 767.334 17.3743 766.452 17.9632C765.571 18.5522 764.884 19.3893 764.478 20.3687C764.073 21.3481 763.966 22.4258 764.173 23.4656C764.38 24.5053 764.891 25.4604 765.64 26.21C766.39 26.9596 767.345 27.4701 768.385 27.6769C769.424 27.8837 770.502 27.7776 771.481 27.3719C772.461 26.9662 773.298 26.2792 773.887 25.3978C774.476 24.5163 774.79 23.48 774.79 22.4199C774.79 20.9983 774.226 19.635 773.22 18.6298C772.215 17.6246 770.852 17.0599 769.43 17.0599Z" stroke="#D32EFF" stroke-linecap="round" stroke-linejoin="round"/>
<path d="M764.07 22.4199L733.27 22.4199" stroke="#D32EFF" stroke-linecap="round" stroke-linejoin="round"/>
<path d="M794.61 11.1L794.61 33.87L801.57 33.87L801.57 11.1L794.61 11.1Z" stroke="#D32EFF" stroke-linecap="round" stroke-linejoin="round"/>
</g>
<path d="M31.7302 13.712H40.6102V15.224H31.7302V13.712ZM31.9222 21.464H42.0262V23H30.1462V6.2H41.6662V7.736H31.9222V21.464ZM50.6693 23.12C49.4693 23.12 48.3893 22.848 47.4293 22.304C46.4853 21.76 45.7413 21.008 45.1973 20.048C44.6533 19.072 44.3813 17.952 44.3813 16.688C44.3813 15.408 44.6533 14.288 45.1973 13.328C45.7413 12.368 46.4853 11.624 47.4293 11.096C48.3893 10.552 49.4693 10.28 50.6693 10.28C51.7733 10.28 52.7573 10.528 53.6213 11.024C54.5013 11.52 55.1973 12.248 55.7093 13.208C56.2373 14.152 56.5013 15.312 56.5013 16.688C56.5013 18.048 56.2453 19.208 55.7333 20.168C55.2213 21.128 54.5253 21.864 53.6453 22.376C52.7813 22.872 51.7893 23.12 50.6693 23.12ZM50.7893 21.608C51.6853 21.608 52.4853 21.408 53.1893 21.008C53.9093 20.592 54.4693 20.016 54.8693 19.28C55.2853 18.528 55.4933 17.664 55.4933 16.688C55.4933 15.696 55.2853 14.832 54.8693 14.096C54.4693 13.36 53.9093 12.792 53.1893 12.392C52.4853 11.976 51.6853 11.768 50.7893 11.768C49.9093 11.768 49.1173 11.976 48.4133 12.392C47.7093 12.792 47.1493 13.36 46.7333 14.096C46.3173 14.832 46.1093 15.696 46.1093 16.688C46.1093 17.664 46.3173 18.528 46.7333 19.28C47.1493 20.016 47.7093 20.592 48.4133 21.008C49.1173 21.408 49.9093 21.608 50.7893 21.608ZM55.5413 23V19.208L55.7093 16.664L55.4693 14.12V5.192H57.1733V23H55.5413ZM61.919 23V10.4H63.623V23H61.919ZM62.783 7.616C62.431 7.616 62.135 7.496 61.895 7.256C61.655 7.016 61.535 6.728 61.535 6.392C61.535 6.056 61.655 5.776 61.895 5.552C62.135 5.312 62.431 5.192 62.783 5.192C63.135 5.192 63.431 5.304 63.671 5.528C63.911 5.752 64.031 6.032 64.031 6.368C64.031 6.72 63.911 7.016 63.671 7.256C63.447 7.496 63.151 7.616 62.783 7.616ZM72.3483 23.12C71.1643 23.12 70.2523 22.8 69.6123 22.16C68.9723 21.52 68.6523 20.616 68.6523 19.448V7.616H70.3563V19.352C70.3563 20.088 70.5403 20.656 70.9083 21.056C71.2923 21.456 71.8363 21.656 72.5403 21.656C73.2923 21.656 73.9163 21.44 74.4123 21.008L75.0123 22.232C74.6763 22.536 74.2683 22.76 73.7883 22.904C73.3243 23.048 72.8443 23.12 72.3483 23.12ZM66.3963 11.816V10.4H74.1963V11.816H66.3963ZM84.7555 23V6.2H86.2195L93.8995 19.304H93.1315L100.74 6.2H102.204V23H100.5V8.864H100.908L93.8995 20.864H93.0595L86.0035 8.864H86.4595V23H84.7555ZM112.453 23.12C111.237 23.12 110.141 22.848 109.165 22.304C108.205 21.744 107.445 20.984 106.885 20.024C106.325 19.048 106.045 17.936 106.045 16.688C106.045 15.424 106.325 14.312 106.885 13.352C107.445 12.392 108.205 11.64 109.165 11.096C110.125 10.552 111.221 10.28 112.453 10.28C113.701 10.28 114.805 10.552 115.765 11.096C116.741 11.64 117.501 12.392 118.045 13.352C118.605 14.312 118.885 15.424 118.885 16.688C118.885 17.936 118.605 19.048 118.045 20.024C117.501 20.984 116.741 21.744 115.765 22.304C114.789 22.848 113.685 23.12 112.453 23.12ZM112.453 21.608C113.365 21.608 114.173 21.408 114.877 21.008C115.581 20.592 116.133 20.016 116.533 19.28C116.949 18.528 117.157 17.664 117.157 16.688C117.157 15.696 116.949 14.832 116.533 14.096C116.133 13.36 115.581 12.792 114.877 12.392C114.173 11.976 113.373 11.768 112.477 11.768C111.581 11.768 110.781 11.976 110.077 12.392C109.373 12.792 108.813 13.36 108.397 14.096C107.981 14.832 107.773 15.696 107.773 16.688C107.773 17.664 107.981 18.528 108.397 19.28C108.813 20.016 109.373 20.592 110.077 21.008C110.781 21.408 111.573 21.608 112.453 21.608ZM127.38 23.12C126.18 23.12 125.1 22.848 124.14 22.304C123.196 21.76 122.452 21.008 121.908 20.048C121.364 19.072 121.092 17.952 121.092 16.688C121.092 15.408 121.364 14.288 121.908 13.328C122.452 12.368 123.196 11.624 124.14 11.096C125.1 10.552 126.18 10.28 127.38 10.28C128.484 10.28 129.468 10.528 130.332 11.024C131.212 11.52 131.908 12.248 132.42 13.208C132.948 14.152 133.212 15.312 133.212 16.688C133.212 18.048 132.956 19.208 132.444 20.168C131.932 21.128 131.236 21.864 130.356 22.376C129.492 22.872 128.5 23.12 127.38 23.12ZM127.5 21.608C128.396 21.608 129.196 21.408 129.9 21.008C130.62 20.592 131.18 20.016 131.58 19.28C131.996 18.528 132.204 17.664 132.204 16.688C132.204 15.696 131.996 14.832 131.58 14.096C131.18 13.36 130.62 12.792 129.9 12.392C129.196 11.976 128.396 11.768 127.5 11.768C126.62 11.768 125.828 11.976 125.124 12.392C124.42 12.792 123.86 13.36 123.444 14.096C123.028 14.832 122.82 15.696 122.82 16.688C122.82 17.664 123.028 18.528 123.444 19.28C123.86 20.016 124.42 20.592 125.124 21.008C125.828 21.408 126.62 21.608 127.5 21.608ZM132.252 23V19.208L132.42 16.664L132.18 14.12V5.192H133.884V23H132.252ZM143.982 23.12C142.67 23.12 141.518 22.848 140.526 22.304C139.534 21.744 138.758 20.984 138.198 20.024C137.638 19.048 137.358 17.936 137.358 16.688C137.358 15.44 137.622 14.336 138.15 13.376C138.694 12.416 139.43 11.664 140.358 11.12C141.302 10.56 142.358 10.28 143.526 10.28C144.71 10.28 145.758 10.552 146.67 11.096C147.598 11.624 148.326 12.376 148.854 13.352C149.382 14.312 149.646 15.424 149.646 16.688C149.646 16.768 149.638 16.856 149.622 16.952C149.622 17.032 149.622 17.12 149.622 17.216H138.654V15.944H148.71L148.038 16.448C148.038 15.536 147.838 14.728 147.438 14.024C147.054 13.304 146.526 12.744 145.854 12.344C145.182 11.944 144.406 11.744 143.526 11.744C142.662 11.744 141.886 11.944 141.198 12.344C140.51 12.744 139.974 13.304 139.59 14.024C139.206 14.744 139.014 15.568 139.014 16.496V16.76C139.014 17.72 139.222 18.568 139.638 19.304C140.07 20.024 140.662 20.592 141.414 21.008C142.182 21.408 143.054 21.608 144.03 21.608C144.798 21.608 145.51 21.472 146.166 21.2C146.838 20.928 147.414 20.512 147.894 19.952L148.854 21.056C148.294 21.728 147.59 22.24 146.742 22.592C145.91 22.944 144.99 23.12 143.982 23.12Z" fill="#D32EFF"/>
<path d="M0 18.66V22.41H3.75L14.81 11.35L11.06 7.6L0 18.66ZM18.41 7.75L14.66 4L12.13 6.54L15.88 10.29L18.41 7.75Z" fill="#D32EFF"/>
</svg>
