<svg width="25" height="24" viewBox="0 0 25 24" fill="none" xmlns="http://www.w3.org/2000/svg">
<g clip-path="url(#clip0_161_408)">
<path d="M6.5 13C5.95 13 5.5 13.45 5.5 14C5.5 14.55 5.95 15 6.5 15C7.05 15 7.5 14.55 7.5 14C7.5 13.45 7.05 13 6.5 13ZM6.5 17C5.95 17 5.5 17.45 5.5 18C5.5 18.55 5.95 19 6.5 19C7.05 19 7.5 18.55 7.5 18C7.5 17.45 7.05 17 6.5 17ZM6.5 9C5.95 9 5.5 9.45 5.5 10C5.5 10.55 5.95 11 6.5 11C7.05 11 7.5 10.55 7.5 10C7.5 9.45 7.05 9 6.5 9ZM3.5 9.5C3.22 9.5 3 9.72 3 10C3 10.28 3.22 10.5 3.5 10.5C3.78 10.5 4 10.28 4 10C4 9.72 3.78 9.5 3.5 9.5ZM6.5 5C5.95 5 5.5 5.45 5.5 6C5.5 6.55 5.95 7 6.5 7C7.05 7 7.5 6.55 7.5 6C7.5 5.45 7.05 5 6.5 5ZM21.5 10.5C21.78 10.5 22 10.28 22 10C22 9.72 21.78 9.5 21.5 9.5C21.22 9.5 21 9.72 21 10C21 10.28 21.22 10.5 21.5 10.5ZM14.5 7C15.05 7 15.5 6.55 15.5 6C15.5 5.45 15.05 5 14.5 5C13.95 5 13.5 5.45 13.5 6C13.5 6.55 13.95 7 14.5 7ZM14.5 3.5C14.78 3.5 15 3.28 15 3C15 2.72 14.78 2.5 14.5 2.5C14.22 2.5 14 2.72 14 3C14 3.28 14.22 3.5 14.5 3.5ZM3.5 13.5C3.22 13.5 3 13.72 3 14C3 14.28 3.22 14.5 3.5 14.5C3.78 14.5 4 14.28 4 14C4 13.72 3.78 13.5 3.5 13.5ZM10.5 20.5C10.22 20.5 10 20.72 10 21C10 21.28 10.22 21.5 10.5 21.5C10.78 21.5 11 21.28 11 21C11 20.72 10.78 20.5 10.5 20.5ZM10.5 3.5C10.78 3.5 11 3.28 11 3C11 2.72 10.78 2.5 10.5 2.5C10.22 2.5 10 2.72 10 3C10 3.28 10.22 3.5 10.5 3.5ZM10.5 7C11.05 7 11.5 6.55 11.5 6C11.5 5.45 11.05 5 10.5 5C9.95 5 9.5 5.45 9.5 6C9.5 6.55 9.95 7 10.5 7ZM10.5 12.5C9.67 12.5 9 13.17 9 14C9 14.83 9.67 15.5 10.5 15.5C11.33 15.5 12 14.83 12 14C12 13.17 11.33 12.5 10.5 12.5ZM18.5 13C17.95 13 17.5 13.45 17.5 14C17.5 14.55 17.95 15 18.5 15C19.05 15 19.5 14.55 19.5 14C19.5 13.45 19.05 13 18.5 13ZM18.5 17C17.95 17 17.5 17.45 17.5 18C17.5 18.55 17.95 19 18.5 19C19.05 19 19.5 18.55 19.5 18C19.5 17.45 19.05 17 18.5 17ZM18.5 9C17.95 9 17.5 9.45 17.5 10C17.5 10.55 17.95 11 18.5 11C19.05 11 19.5 10.55 19.5 10C19.5 9.45 19.05 9 18.5 9ZM18.5 5C17.95 5 17.5 5.45 17.5 6C17.5 6.55 17.95 7 18.5 7C19.05 7 19.5 6.55 19.5 6C19.5 5.45 19.05 5 18.5 5ZM21.5 13.5C21.22 13.5 21 13.72 21 14C21 14.28 21.22 14.5 21.5 14.5C21.78 14.5 22 14.28 22 14C22 13.72 21.78 13.5 21.5 13.5ZM14.5 17C13.95 17 13.5 17.45 13.5 18C13.5 18.55 13.95 19 14.5 19C15.05 19 15.5 18.55 15.5 18C15.5 17.45 15.05 17 14.5 17ZM14.5 20.5C14.22 20.5 14 20.72 14 21C14 21.28 14.22 21.5 14.5 21.5C14.78 21.5 15 21.28 15 21C15 20.72 14.78 20.5 14.5 20.5ZM10.5 8.5C9.67 8.5 9 9.17 9 10C9 10.83 9.67 11.5 10.5 11.5C11.33 11.5 12 10.83 12 10C12 9.17 11.33 8.5 10.5 8.5ZM10.5 17C9.95 17 9.5 17.45 9.5 18C9.5 18.55 9.95 19 10.5 19C11.05 19 11.5 18.55 11.5 18C11.5 17.45 11.05 17 10.5 17ZM14.5 12.5C13.67 12.5 13 13.17 13 14C13 14.83 13.67 15.5 14.5 15.5C15.33 15.5 16 14.83 16 14C16 13.17 15.33 12.5 14.5 12.5ZM14.5 8.5C13.67 8.5 13 9.17 13 10C13 10.83 13.67 11.5 14.5 11.5C15.33 11.5 16 10.83 16 10C16 9.17 15.33 8.5 14.5 8.5Z" fill="#FEFEFE"/>
</g>
<defs>
<clipPath id="clip0_161_408">
<rect width="24" height="24" fill="white" transform="translate(0.5)"/>
</clipPath>
</defs>
</svg>
