<svg width="16" height="17" viewBox="0 0 16 17" fill="none" xmlns="http://www.w3.org/2000/svg">
<g clip-path="url(#clip0_224_60)">
<path d="M7.66444 3.79034C4.47091 3.79034 1.74363 5.77672 0.638672 8.58064C1.74363 11.3846 4.47091 13.3709 7.66444 13.3709C10.858 13.3709 13.5852 11.3846 14.6902 8.58064C13.5852 5.77672 10.858 3.79034 7.66444 3.79034ZM7.66444 11.7742C5.90161 11.7742 4.47091 10.3435 4.47091 8.58064C4.47091 6.81781 5.90161 5.38711 7.66444 5.38711C9.42727 5.38711 10.858 6.81781 10.858 8.58064C10.858 10.3435 9.42727 11.7742 7.66444 11.7742ZM7.66444 6.66452C6.60419 6.66452 5.74832 7.52039 5.74832 8.58064C5.74832 9.64089 6.60419 10.4968 7.66444 10.4968C8.72469 10.4968 9.58055 9.64089 9.58055 8.58064C9.58055 7.52039 8.72469 6.66452 7.66444 6.66452Z" fill="#D32EFF"/>
</g>
<defs>
<clipPath id="clip0_224_60">
<rect width="15.3289" height="15.3289" fill="white" transform="translate(0 0.916138)"/>
</clipPath>
</defs>
</svg>
