<svg width="291" height="300" viewBox="0 0 291 300" fill="none" xmlns="http://www.w3.org/2000/svg">
<path opacity="0.7" d="M289.556 130.284C293.079 105.765 290.149 80.2876 280.837 55.0133C264.543 10.8258 231.452 -28.9421 188.417 -48.9926C171.117 -57.1913 152.276 -61.6218 133.138 -61.9913C99.0411 -62.4057 70.2288 -47.9202 46.2714 -24.7094C27.526 -6.56812 9.94959 13.7342 -13.0905 26.6273C-34.9046 38.8136 -54.7217 55.6063 -60.5751 81.4494C-65.7546 104.327 -56.2804 128.017 -40.7905 144.899C-30.6831 155.916 -17.3445 163.317 -7.14778 174.219C6.51551 188.843 4.77005 202.134 5.90663 220.877C8.28532 260.035 42.683 287.04 78.2742 296.302C122.649 307.846 164.216 291.281 197.526 261.652C219.056 242.503 241.178 223.387 258.966 200.582C275.811 178.956 285.992 155.111 289.556 130.284Z" fill="#D6E5F5" fill-opacity="0.6"/>
</svg>
