<svg width="42" height="10" viewBox="0 0 42 10" fill="none" xmlns="http://www.w3.org/2000/svg">
<path d="M8.18182 3.63636L8.75 2.38636L10 1.81818L8.75 1.25L8.18182 0L7.61364 1.25L6.36364 1.81818L7.61364 2.38636L8.18182 3.63636ZM4.77273 3.86364L3.63636 1.36364L2.5 3.86364L0 5L2.5 6.13636L3.63636 8.63636L4.77273 6.13636L7.27273 5L4.77273 3.86364ZM8.18182 6.36364L7.61364 7.61364L6.36364 8.18182L7.61364 8.75L8.18182 10L8.75 8.75L10 8.18182L8.75 7.61364L8.18182 6.36364Z" fill="#00E15A"/>
<path d="M24.1818 3.63636L24.75 2.38636L26 1.81818L24.75 1.25L24.1818 0L23.6136 1.25L22.3636 1.81818L23.6136 2.38636L24.1818 3.63636ZM20.7727 3.86364L19.6364 1.36364L18.5 3.86364L16 5L18.5 6.13636L19.6364 8.63636L20.7727 6.13636L23.2727 5L20.7727 3.86364ZM24.1818 6.36364L23.6136 7.61364L22.3636 8.18182L23.6136 8.75L24.1818 10L24.75 8.75L26 8.18182L24.75 7.61364L24.1818 6.36364Z" fill="#00E15A"/>
<path d="M40.1818 3.63636L40.75 2.38636L42 1.81818L40.75 1.25L40.1818 0L39.6136 1.25L38.3636 1.81818L39.6136 2.38636L40.1818 3.63636ZM36.7727 3.86364L35.6364 1.36364L34.5 3.86364L32 5L34.5 6.13636L35.6364 8.63636L36.7727 6.13636L39.2727 5L36.7727 3.86364ZM40.1818 6.36364L39.6136 7.61364L38.3636 8.18182L39.6136 8.75L40.1818 10L40.75 8.75L42 8.18182L40.75 7.61364L40.1818 6.36364Z" fill="#00E15A"/>
</svg>
