<svg width="1022" height="60" viewBox="0 0 1022 60" fill="none" xmlns="http://www.w3.org/2000/svg">
<path d="M366.906 20.2026L363.467 6.20063L363.332 5.68475V56.1165H369.141H375L366.906 20.2026Z" fill="#FEFEFE" stroke="#263238" stroke-opacity="0.5" stroke-width="1.22824" stroke-miterlimit="10" stroke-linecap="square"/>
<path d="M363.356 5.80768V45.4431L370.197 59.1503L374.987 56.7553L363.356 5.80768Z" fill="#FEFEFE" stroke="#263238" stroke-opacity="0.5" stroke-width="1.22824" stroke-miterlimit="10" stroke-linecap="square"/>
<path d="M287.181 2V53.1441H305.469V38.27L287.181 2Z" fill="#FEFEFE" stroke="#263238" stroke-opacity="0.5" stroke-width="1.22824" stroke-linecap="round" stroke-linejoin="round"/>
<path d="M305.469 38.2578L287.181 27.8177" stroke="#263238" stroke-opacity="0.5" stroke-width="1.22824" stroke-miterlimit="10"/>
<path d="M172.954 53.4511V38.8841L191.242 3.22821L208.597 38.8841V53.4511H172.954Z" fill="#FEFEFE" stroke="#263238" stroke-opacity="0.5" stroke-width="1.22824" stroke-linecap="round" stroke-linejoin="round"/>
<path d="M172.954 38.8841L191.242 28.8494L208.597 38.8841" stroke="#263238" stroke-opacity="0.5" stroke-width="1.22824" stroke-linecap="round" stroke-linejoin="round"/>
<path d="M191.242 3.22821V53.4511" stroke="#263238" stroke-opacity="0.5" stroke-width="1.22824" stroke-linecap="round" stroke-linejoin="round"/>
<path d="M980.164 30.7796V45.4055L1020.17 14.5526L980.164 30.7796Z" fill="#FEFEFE" stroke="#263238" stroke-opacity="0.5" stroke-width="1.07464" stroke-linecap="round" stroke-linejoin="round"/>
<path d="M1021.1 14.0475L980.164 30.7796L971.953 24.7724L979.809 18.3246L1021.1 14.0475Z" fill="#FEFEFE" stroke="#263238" stroke-opacity="0.5" stroke-width="1.07464" stroke-linecap="round" stroke-linejoin="round"/>
<path d="M1021.1 14.0475L1009.4 37.6466L995.821 41.8269L990.416 37.8293L990.19 37.6681L984.978 33.8101L1020.14 14.5741L1021.1 14.0475Z" fill="#FEFEFE" stroke="#263238" stroke-opacity="0.5" stroke-width="1.07464" stroke-linecap="round" stroke-linejoin="round"/>
<path d="M984.978 33.8101L980.164 45.4055L990.416 37.8293L984.978 33.8101Z" fill="#FEFEFE" stroke="#263238" stroke-opacity="0.5" stroke-width="1.07464" stroke-linecap="round" stroke-linejoin="round"/>
<path d="M911 55.7757L911.816 55.0772" stroke="#263238" stroke-opacity="0.5" stroke-width="1.07464" stroke-linecap="round" stroke-linejoin="round"/>
<path d="M915.352 52.3906C916.916 51.3395 918.575 50.4364 920.306 49.6933C926.668 46.9852 930.73 51.0258 929.086 53.8844C925.421 60.257 911.978 52.6163 925.421 45.0831C937.371 38.3881 962.271 50.6927 975.22 48.2103" stroke="#263238" stroke-opacity="0.5" stroke-width="1.07464" stroke-linecap="round" stroke-linejoin="round" stroke-dasharray="2.22 4.43"/>
<path d="M977.348 47.63C977.685 47.5043 978.015 47.3608 978.336 47.2001" stroke="#263238" stroke-opacity="0.5" stroke-width="1.07464" stroke-linecap="round" stroke-linejoin="round"/>
<path d="M37.3191 3.60898H1V54.6057H37.3191V3.60898Z" fill="#FEFEFE" stroke="#263238" stroke-opacity="0.5" stroke-width="1.22824" stroke-linecap="round" stroke-linejoin="round"/>
<path d="M19.166 3.22824V54.3109" stroke="#263238" stroke-opacity="0.5" stroke-width="1.22824" stroke-linecap="round" stroke-linejoin="round" stroke-dasharray="2.46 4.91"/>
<path d="M10.8872 34.5362C14.0438 31.2813 19.8043 29.2179 25.6261 29.2547C31.448 29.2916 37.1348 31.4287 40.1931 34.7204C40.3528 31.0357 37.7366 27.2404 33.2535 24.8945C28.2863 22.5248 22.6913 21.806 17.2863 22.8433" stroke="#0066CC" stroke-opacity="0.8" stroke-width="1.22824" stroke-miterlimit="10"/>
<path d="M14.0684 23.1012L16.8074 24.7962V21.4062L14.0684 23.1012Z" stroke="#0066CC" stroke-opacity="0.8" stroke-width="1.22824" stroke-miterlimit="10"/>
<path d="M325.257 3.22821V54.3723H343.545V39.4983L325.257 3.22821Z" fill="#FEFEFE" stroke="#263238" stroke-opacity="0.5" stroke-width="1.22824" stroke-miterlimit="10" stroke-linecap="square"/>
<path d="M325.257 3.70718L336.815 54.3723" stroke="#263238" stroke-opacity="0.5" stroke-width="1.22824" stroke-linecap="round" stroke-linejoin="round" stroke-dasharray="2.46 4.91"/>
<path d="M343.545 39.4983L325.257 29.0459" stroke="#263238" stroke-opacity="0.5" stroke-width="1.22824" stroke-miterlimit="10" stroke-linecap="square"/>
<path d="M338.644 39.4123C338.108 41.2924 337.032 42.9739 335.55 44.2488C334.067 45.5237 332.244 46.336 330.305 46.5852" stroke="#0066CC" stroke-opacity="0.8" stroke-width="1.22824" stroke-linecap="round" stroke-linejoin="round"/>
<path d="M327.701 47.0396L330.636 48.3539L330.182 44.9885L327.701 47.0396Z" stroke="#0066CC" stroke-opacity="0.8" stroke-width="1.22824" stroke-miterlimit="10"/>
<path d="M96.3485 3.22824H60.0293V54.2249H96.3485V3.22824Z" fill="#FEFEFE" stroke="#263238" stroke-opacity="0.5" stroke-width="1.22824" stroke-linecap="round" stroke-linejoin="round"/>
<path d="M59.9556 21.0009L78.588 3.22821L96.2747 21.0009" stroke="#263238" stroke-opacity="0.5" stroke-width="1.22824" stroke-linecap="round" stroke-linejoin="round" stroke-dasharray="2.46 4.91"/>
<path d="M78.5884 4.41965V53.9302" stroke="#263238" stroke-opacity="0.5" stroke-width="1.22824" stroke-linecap="round" stroke-linejoin="round"/>
<path d="M64.8198 8.63254C66.6984 9.16964 68.3782 10.2461 69.651 11.7285C70.9238 13.2109 71.7337 15.0341 71.9805 16.9723" stroke="#0066CC" stroke-opacity="0.8" stroke-width="1.22824" stroke-linecap="round" stroke-linejoin="round"/>
<path d="M72.434 19.5762L73.7482 16.6407L70.3828 17.0951L72.434 19.5762Z" stroke="#0066CC" stroke-opacity="0.8" stroke-width="1.22824" stroke-miterlimit="10"/>
<path d="M90.4278 8.63254C88.5477 9.16902 86.8662 10.245 85.5913 11.7273C84.3164 13.2096 83.5041 15.0331 83.2549 16.9723" stroke="#0066CC" stroke-opacity="0.8" stroke-width="1.22824" stroke-linecap="round" stroke-linejoin="round"/>
<path d="M82.8133 19.5762L81.499 16.6407L84.8521 17.0951L82.8133 19.5762Z" stroke="#0066CC" stroke-opacity="0.8" stroke-width="1.22824" stroke-miterlimit="10"/>
<path d="M152.774 54.3109H116.455V21.0009L135.088 3.22821L152.774 21.0009V54.3109Z" fill="#FEFEFE" stroke="#263238" stroke-opacity="0.5" stroke-width="1.22824" stroke-linecap="round" stroke-linejoin="round"/>
<path d="M116.455 39.5474L135.088 3.22821L152.774 39.5474" stroke="#263238" stroke-opacity="0.5" stroke-width="1.22824" stroke-linecap="round" stroke-linejoin="round" stroke-dasharray="2.46 4.91"/>
<path d="M152.774 21.0009H143.747H135.088H125.974H116.455" stroke="#263238" stroke-opacity="0.5" stroke-width="1.22824" stroke-linecap="round" stroke-linejoin="round"/>
<path d="M135.087 3.22824V54.3109" stroke="#263238" stroke-opacity="0.5" stroke-width="1.22824" stroke-linecap="round" stroke-linejoin="round"/>
<path d="M121.565 19.0112C123.447 19.5485 125.13 20.6263 126.405 22.1109C127.68 23.5956 128.491 25.4218 128.738 27.3632" stroke="#0066CC" stroke-opacity="0.8" stroke-width="1.22824" stroke-linecap="round" stroke-linejoin="round"/>
<path d="M129.18 29.9671L130.506 27.0316L127.141 27.4738L129.18 29.9671Z" stroke="#0066CC" stroke-opacity="0.8" stroke-width="1.22824" stroke-miterlimit="10"/>
<path d="M148.23 19.0112C146.348 19.5485 144.665 20.6263 143.39 22.1109C142.115 23.5956 141.304 25.4218 141.057 27.3632" stroke="#0066CC" stroke-opacity="0.8" stroke-width="1.22824" stroke-linecap="round" stroke-linejoin="round"/>
<path d="M140.603 29.9671L139.289 27.0316L142.654 27.4738L140.603 29.9671Z" stroke="#0066CC" stroke-opacity="0.8" stroke-width="1.22824" stroke-miterlimit="10"/>
<path d="M231.413 53.4511V38.8841L249.701 3.22821L267.069 38.8841V53.4511H231.413Z" fill="#FEFEFE" stroke="#263238" stroke-opacity="0.5" stroke-width="1.22824" stroke-linecap="round" stroke-linejoin="round"/>
<path d="M231.413 38.8841L249.701 28.8494L267.069 38.8841" stroke="#263238" stroke-opacity="0.5" stroke-width="1.22824" stroke-linecap="round" stroke-linejoin="round"/>
<path d="M249.64 3.74405V53.9669" stroke="#263238" stroke-opacity="0.5" stroke-width="1.22824" stroke-linecap="round" stroke-linejoin="round" stroke-dasharray="2.46 4.91"/>
<path d="M238.475 37.9138C237.08 38.6139 235.541 38.9785 233.98 38.9785C232.419 38.9785 230.879 38.6139 229.484 37.9138C229.104 37.7121 228.786 37.4105 228.564 37.0416C228.342 36.6727 228.225 36.2502 228.225 35.8197C228.225 35.3891 228.342 34.9667 228.564 34.5977C228.786 34.2288 229.104 33.9273 229.484 33.7255H229.558" stroke="#0066CC" stroke-opacity="0.8" stroke-width="1.22824" stroke-linecap="round" stroke-linejoin="round"/>
<path d="M232.334 33.1728L229.459 31.7112L229.754 35.1011L232.334 33.1728Z" stroke="#0066CC" stroke-opacity="0.8" stroke-width="1.22824" stroke-miterlimit="10"/>
</svg>
