<svg width="156" height="25" viewBox="0 0 156 25" fill="none" xmlns="http://www.w3.org/2000/svg">
<mask id="path-1-inside-1_54_15" fill="white">
<path d="M0 2C0 0.89543 0.895431 0 2 0H23C24.1046 0 25 0.895431 25 2V23C25 24.1046 24.1046 25 23 25H2C0.89543 25 0 24.1046 0 23V2Z"/>
</mask>
<path d="M-1 2C-1 0.343146 0.343146 -1 2 -1H23C24.6569 -1 26 0.343146 26 2H24C24 1.44772 23.5523 1 23 1H2C1.44772 1 1 1.44772 1 2H-1ZM25 25H0H25ZM2 25C0.343146 25 -1 23.6569 -1 22V2C-1 0.343146 0.343146 -1 2 -1V1C1.44772 1 1 1.44772 1 2V23C1 24.1046 1.44772 25 2 25ZM23 -1C24.6569 -1 26 0.343146 26 2V22C26 23.6569 24.6569 25 23 25C23.5523 25 24 24.1046 24 23V2C24 1.44772 23.5523 1 23 1V-1Z" fill="black" mask="url(#path-1-inside-1_54_15)"/>
<mask id="path-3-inside-2_54_15" fill="white">
<path d="M56 -8.74228e-08C57.1046 -3.91405e-08 58 0.895431 58 2L58 23C58 24.1046 57.1046 25 56 25L35 25C33.8954 25 33 24.1046 33 23L33 2C33 0.895429 33.8954 -1.05364e-06 35 -1.00536e-06L56 -8.74228e-08Z"/>
</mask>
<path d="M56 -1C57.6569 -1 59 0.343146 59 2L59 23C59 24.6569 57.6569 26 56 26L56 24C56.5523 24 57 23.5523 57 23L57 2C57 1.44772 56.5523 1 56 1L56 -1ZM33 25L33 -1.09278e-06L33 25ZM33 2C33 0.343145 34.3431 -1 36 -1L56 -1C57.6569 -1 59 0.343146 59 2L57 2C57 1.44772 56.5523 1 56 1L35 0.999999C33.8954 0.999999 33 1.44771 33 2ZM59 23C59 24.6569 57.6569 26 56 26L36 26C34.3431 26 33 24.6569 33 23C33 23.5523 33.8954 24 35 24L56 24C56.5523 24 57 23.5523 57 23L59 23Z" fill="black" mask="url(#path-3-inside-2_54_15)"/>
<mask id="path-5-inside-3_54_15" fill="white">
<path d="M68 2C68 0.89543 68.8954 0 70 0L91 0C92.1046 0 93 0.895431 93 2V23C93 24.1046 92.1046 25 91 25L70 25C68.8954 25 68 24.1046 68 23V2Z"/>
</mask>
<path d="M67 2C67 0.343146 68.3431 -1 70 -1L91 -1C92.6569 -1 94 0.343146 94 2L92 2C92 1.44772 91.5523 1 91 1L70 1C69.4477 1 69 1.44772 69 2L67 2ZM93 25L68 25L93 25ZM70 25C68.3431 25 67 23.6569 67 22V2C67 0.343146 68.3431 -1 70 -1V1C69.4477 1 69 1.44772 69 2V23C69 24.1046 69.4477 25 70 25ZM91 -1C92.6569 -1 94 0.343146 94 2V22C94 23.6569 92.6569 25 91 25C91.5523 25 92 24.1046 92 23V2C92 1.44772 91.5523 1 91 1V-1Z" fill="black" mask="url(#path-5-inside-3_54_15)"/>
<path d="M98 0.5H110.5M123 0.5H110.5M110.5 0.5V25" stroke="black"/>
<mask id="path-8-inside-4_54_15" fill="white">
<path d="M131 2C131 0.89543 131.895 0 133 0L154 0C155.105 0 156 0.895431 156 2V23C156 24.1046 155.105 25 154 25L133 25C131.895 25 131 24.1046 131 23V2Z"/>
</mask>
<path d="M130 2C130 0.343146 131.343 -1 133 -1L154 -1C155.657 -1 157 0.343146 157 2L155 2C155 1.44772 154.552 1 154 1L133 1C132.448 1 132 1.44772 132 2L130 2ZM156 25L131 25L156 25ZM133 25C131.343 25 130 23.6569 130 22V2C130 0.343146 131.343 -1 133 -1V1C132.448 1 132 1.44772 132 2V23C132 24.1046 132.448 25 133 25ZM154 -1C155.657 -1 157 0.343146 157 2V22C157 23.6569 155.657 25 154 25C154.552 25 155 24.1046 155 23V2C155 1.44772 154.552 1 154 1V-1Z" fill="black" mask="url(#path-8-inside-4_54_15)"/>
</svg>
