<svg width="994" height="472" viewBox="0 0 994 472" fill="none" xmlns="http://www.w3.org/2000/svg">
<rect width="1049" height="472" rx="29.1916" fill="#0066CC" fill-opacity="0.15"/>
<path d="M68.2548 88.0694L62.3487 100.613L61.5125 95.7003C62.9062 95.7003 64.0561 96.1533 64.962 97.0592C65.868 97.9303 66.3209 99.0453 66.3209 100.404C66.3209 102.042 65.7809 103.366 64.7007 104.376C63.6554 105.352 62.3836 105.84 60.8853 105.84C59.4915 105.84 58.3416 105.404 57.4357 104.533C56.5646 103.662 56.129 102.53 56.129 101.136C56.129 100.369 56.2684 99.6551 56.5472 98.9931C56.8259 98.2962 57.2789 97.4599 57.9061 96.4843L63.1327 88.0694H68.2548ZM80.5896 88.0694L74.6835 100.613L73.8473 95.7003C75.241 95.7003 76.3909 96.1533 77.2968 97.0592C78.2028 97.9303 78.6558 99.0453 78.6558 100.404C78.6558 102.042 78.1157 103.366 77.0355 104.376C75.9902 105.352 74.7184 105.84 73.2201 105.84C71.8263 105.84 70.6765 105.404 69.7705 104.533C68.8994 103.662 68.4639 102.53 68.4639 101.136C68.4639 100.369 68.6032 99.6551 68.882 98.9931C69.1607 98.2962 69.6137 97.4599 70.2409 96.4843L75.4675 88.0694H80.5896ZM79.5467 126.851L86.864 90.2646H95.3834L88.0661 126.851H79.5467ZM125.819 127.269C122.927 127.269 120.401 126.746 118.241 125.701C116.115 124.656 114.46 123.192 113.276 121.311C112.091 119.429 111.499 117.217 111.499 114.673C111.499 111.537 112.23 108.749 113.694 106.31C115.157 103.836 117.178 101.885 119.757 100.457C122.335 99.0279 125.297 98.3136 128.642 98.3136C131.638 98.3136 134.234 98.9408 136.43 100.195C138.625 101.415 140.245 103.157 141.29 105.422L134.391 108.871C133.799 107.547 132.963 106.589 131.882 105.997C130.837 105.37 129.583 105.056 128.119 105.056C126.516 105.056 125.088 105.457 123.833 106.258C122.579 107.025 121.586 108.105 120.854 109.499C120.122 110.857 119.757 112.443 119.757 114.255C119.757 116.171 120.314 117.704 121.429 118.854C122.579 119.969 124.199 120.527 126.29 120.527C127.718 120.527 129.025 120.231 130.21 119.638C131.395 119.011 132.388 118.053 133.189 116.764L139.2 120.527C137.876 122.652 136.029 124.307 133.659 125.492C131.325 126.677 128.712 127.269 125.819 127.269ZM154.199 127.269C152.039 127.269 150.035 126.781 148.189 125.806C146.342 124.795 144.861 123.349 143.746 121.468C142.631 119.586 142.073 117.321 142.073 114.673C142.073 112.304 142.457 110.126 143.223 108.14C144.025 106.154 145.14 104.429 146.568 102.965C147.997 101.502 149.652 100.369 151.534 99.568C153.415 98.7317 155.436 98.3136 157.597 98.3136C159.931 98.3136 161.935 98.7492 163.607 99.6203C165.28 100.491 166.517 101.85 167.318 103.697C168.154 105.509 168.45 107.861 168.207 110.753C168.032 114.063 167.353 116.973 166.168 119.481C164.983 121.955 163.381 123.872 161.36 125.231C159.374 126.59 156.987 127.269 154.199 127.269ZM156.708 120.527C158.311 120.527 159.722 120.143 160.942 119.377C162.196 118.575 163.172 117.495 163.868 116.136C164.6 114.743 164.966 113.122 164.966 111.276C164.966 109.359 164.391 107.843 163.241 106.728C162.126 105.613 160.558 105.056 158.537 105.056C156.969 105.056 155.558 105.457 154.304 106.258C153.049 107.025 152.056 108.105 151.325 109.499C150.628 110.857 150.279 112.46 150.279 114.307C150.279 116.223 150.837 117.739 151.952 118.854C153.102 119.969 154.687 120.527 156.708 120.527ZM162.3 126.851L163.398 121.258L165.227 112.896L166.325 104.533L167.475 98.7317H175.628L170.036 126.851H162.3ZM199.536 98.3136C201.941 98.3136 203.979 98.8188 205.652 99.8293C207.324 100.805 208.509 102.251 209.206 104.167C209.903 106.084 209.972 108.453 209.415 111.276L206.279 126.851H198.125L201.157 111.798C201.575 109.742 201.401 108.157 200.634 107.042C199.902 105.927 198.543 105.37 196.557 105.37C194.502 105.37 192.777 105.962 191.383 107.147C190.024 108.331 189.083 110.143 188.561 112.582L185.738 126.851H177.585L183.177 98.7317H190.913L189.292 106.676L188.142 104.272C189.501 102.216 191.174 100.718 193.16 99.7771C195.181 98.8014 197.306 98.3136 199.536 98.3136ZM235.674 98.3136C238.078 98.3136 240.116 98.8188 241.789 99.8293C243.461 100.805 244.646 102.251 245.343 104.167C246.04 106.084 246.109 108.453 245.552 111.276L242.416 126.851H234.262L237.294 111.798C237.712 109.742 237.538 108.157 236.771 107.042C236.04 105.927 234.681 105.37 232.695 105.37C230.639 105.37 228.914 105.962 227.52 107.147C226.161 108.331 225.22 110.143 224.698 112.582L221.875 126.851H213.722L219.314 98.7317H227.05L225.429 106.676L224.28 104.272C225.639 102.216 227.311 100.718 229.297 99.7771C231.318 98.8014 233.444 98.3136 235.674 98.3136ZM264.648 127.269C261.791 127.269 259.299 126.746 257.174 125.701C255.048 124.656 253.393 123.192 252.209 121.311C251.059 119.429 250.484 117.217 250.484 114.673C250.484 111.537 251.216 108.749 252.679 106.31C254.142 103.836 256.146 101.885 258.69 100.457C261.268 99.0279 264.195 98.3136 267.47 98.3136C270.362 98.3136 272.854 98.8363 274.944 99.8816C277.07 100.927 278.708 102.39 279.857 104.272C281.042 106.119 281.634 108.331 281.634 110.91C281.634 114.011 280.903 116.798 279.439 119.272C277.976 121.746 275.972 123.698 273.429 125.126C270.885 126.555 267.958 127.269 264.648 127.269ZM265.171 120.579C266.773 120.579 268.185 120.196 269.404 119.429C270.659 118.628 271.634 117.53 272.331 116.136C273.028 114.743 273.376 113.122 273.376 111.276C273.376 109.394 272.819 107.878 271.704 106.728C270.589 105.579 269.021 105.004 267 105.004C265.397 105.004 263.968 105.404 262.714 106.206C261.495 106.972 260.519 108.053 259.787 109.446C259.09 110.84 258.742 112.46 258.742 114.307C258.742 116.223 259.299 117.757 260.414 118.906C261.529 120.022 263.115 120.579 265.171 120.579ZM295.605 127.269C293.584 127.269 291.859 126.868 290.431 126.067C289.002 125.231 287.974 124.046 287.347 122.513C286.755 120.945 286.668 119.098 287.086 116.973L291.946 92.5121H300.1L295.239 116.92C295.03 118.105 295.152 119.046 295.605 119.743C296.058 120.44 296.894 120.788 298.114 120.788C298.671 120.788 299.229 120.701 299.786 120.527C300.379 120.353 300.919 120.109 301.407 119.795L302.609 125.597C301.598 126.224 300.483 126.659 299.264 126.903C298.044 127.147 296.825 127.269 295.605 127.269ZM284.995 105.631L286.249 99.3589H305.745L304.49 105.631H284.995ZM333.12 127.269C331.099 127.269 329.375 126.868 327.946 126.067C326.517 125.231 325.489 124.046 324.862 122.513C324.27 120.945 324.183 119.098 324.601 116.973L329.462 92.5121H337.615L332.754 116.92C332.545 118.105 332.667 119.046 333.12 119.743C333.573 120.44 334.41 120.788 335.629 120.788C336.187 120.788 336.744 120.701 337.302 120.527C337.894 120.353 338.434 120.109 338.922 119.795L340.124 125.597C339.114 126.224 337.999 126.659 336.779 126.903C335.559 127.147 334.34 127.269 333.12 127.269ZM322.51 105.631L323.765 99.3589H343.26L342.006 105.631H322.51ZM358.468 127.269C355.541 127.269 352.997 126.746 350.837 125.701C348.711 124.656 347.056 123.192 345.872 121.311C344.687 119.429 344.095 117.217 344.095 114.673C344.095 111.537 344.792 108.749 346.185 106.31C347.614 103.836 349.565 101.885 352.039 100.457C354.548 99.0279 357.423 98.3136 360.663 98.3136C363.416 98.3136 365.785 98.8363 367.771 99.8816C369.757 100.892 371.29 102.321 372.371 104.167C373.486 105.979 374.043 108.157 374.043 110.701C374.043 111.432 373.991 112.164 373.886 112.896C373.817 113.628 373.712 114.324 373.573 114.987H350.314L351.151 110.23H369.757L366.412 111.694C366.691 110.126 366.604 108.819 366.151 107.774C365.698 106.694 364.966 105.875 363.956 105.317C362.945 104.725 361.726 104.429 360.297 104.429C358.52 104.429 357.004 104.864 355.75 105.735C354.53 106.572 353.607 107.739 352.98 109.237C352.353 110.736 352.039 112.425 352.039 114.307C352.039 116.467 352.631 118.088 353.816 119.168C355.036 120.213 356.865 120.736 359.304 120.736C360.733 120.736 362.109 120.509 363.433 120.056C364.757 119.603 365.89 118.959 366.83 118.122L370.228 123.506C368.59 124.795 366.743 125.753 364.688 126.381C362.667 126.973 360.593 127.269 358.468 127.269ZM389.04 127.269C386.88 127.269 384.876 126.781 383.029 125.806C381.183 124.795 379.702 123.349 378.587 121.468C377.472 119.586 376.914 117.321 376.914 114.673C376.914 112.304 377.297 110.126 378.064 108.14C378.865 106.154 379.98 104.429 381.409 102.965C382.838 101.502 384.493 100.369 386.374 99.568C388.256 98.7317 390.277 98.3136 392.437 98.3136C394.772 98.3136 396.775 98.7492 398.448 99.6203C400.12 100.491 401.357 101.85 402.159 103.697C402.995 105.509 403.291 107.861 403.047 110.753C402.873 114.063 402.194 116.973 401.009 119.481C399.824 121.955 398.221 123.872 396.2 125.231C394.214 126.59 391.827 127.269 389.04 127.269ZM391.549 120.527C393.152 120.527 394.563 120.143 395.782 119.377C397.037 118.575 398.012 117.495 398.709 116.136C399.441 114.743 399.807 113.122 399.807 111.276C399.807 109.359 399.232 107.843 398.082 106.728C396.967 105.613 395.399 105.056 393.378 105.056C391.81 105.056 390.399 105.457 389.144 106.258C387.89 107.025 386.897 108.105 386.165 109.499C385.468 110.857 385.12 112.46 385.12 114.307C385.12 116.223 385.677 117.739 386.792 118.854C387.942 119.969 389.528 120.527 391.549 120.527ZM397.141 126.851L398.239 121.258L400.068 112.896L401.166 104.533L402.316 98.7317H410.469L404.877 126.851H397.141ZM427.269 127.269C424.377 127.269 421.851 126.746 419.69 125.701C417.565 124.656 415.91 123.192 414.725 121.311C413.54 119.429 412.948 117.217 412.948 114.673C412.948 111.537 413.68 108.749 415.143 106.31C416.607 103.836 418.628 101.885 421.206 100.457C423.785 99.0279 426.746 98.3136 430.091 98.3136C433.088 98.3136 435.684 98.9408 437.879 100.195C440.074 101.415 441.694 103.157 442.74 105.422L435.841 108.871C435.248 107.547 434.412 106.589 433.332 105.997C432.287 105.37 431.032 105.056 429.569 105.056C427.966 105.056 426.537 105.457 425.283 106.258C424.028 107.025 423.035 108.105 422.304 109.499C421.572 110.857 421.206 112.443 421.206 114.255C421.206 116.171 421.764 117.704 422.879 118.854C424.028 119.969 425.649 120.527 427.739 120.527C429.168 120.527 430.475 120.231 431.659 119.638C432.844 119.011 433.837 118.053 434.638 116.764L440.649 120.527C439.325 122.652 437.478 124.307 435.109 125.492C432.774 126.677 430.161 127.269 427.269 127.269ZM465.104 98.3136C467.473 98.3136 469.494 98.8188 471.167 99.8293C472.839 100.805 474.024 102.251 474.721 104.167C475.453 106.084 475.54 108.453 474.982 111.276L471.846 126.851H463.693L466.724 111.798C467.142 109.742 466.968 108.157 466.202 107.042C465.47 105.927 464.111 105.37 462.125 105.37C460.069 105.37 458.344 105.962 456.95 107.147C455.592 108.331 454.651 110.143 454.128 112.582L451.306 126.851H443.152L450.888 88.0694H459.041L455.33 106.676L453.71 104.272C455.069 102.216 456.741 100.718 458.728 99.7771C460.748 98.8014 462.874 98.3136 465.104 98.3136ZM65.6937 191.269C63.5334 191.269 61.5299 190.781 59.6831 189.806C57.8364 188.795 56.3555 187.349 55.2405 185.468C54.1255 183.586 53.568 181.321 53.568 178.673C53.568 176.304 53.9513 174.126 54.7178 172.14C55.5193 170.154 56.6343 168.429 58.0629 166.965C59.4915 165.502 61.1466 164.369 63.0282 163.568C64.9098 162.732 66.9307 162.314 69.0911 162.314C71.4256 162.314 73.4291 162.749 75.1017 163.62C76.7742 164.491 78.0112 165.85 78.8126 167.697C79.6488 169.509 79.945 171.861 79.7011 174.753C79.5269 178.063 78.8474 180.973 77.6627 183.481C76.478 185.955 74.8752 187.872 72.8542 189.231C70.8681 190.59 68.4813 191.269 65.6937 191.269ZM68.2025 184.527C69.8054 184.527 71.2165 184.143 72.4361 183.377C73.6905 182.575 74.6661 181.495 75.363 180.136C76.0947 178.743 76.4606 177.122 76.4606 175.276C76.4606 173.359 75.8857 171.843 74.7358 170.728C73.6208 169.613 72.0528 169.056 70.0318 169.056C68.4639 169.056 67.0527 169.457 65.7983 170.258C64.5439 171.025 63.5508 172.105 62.8191 173.499C62.1222 174.857 61.7738 176.46 61.7738 178.307C61.7738 180.223 62.3313 181.739 63.4463 182.854C64.5962 183.969 66.1816 184.527 68.2025 184.527ZM73.795 190.851L74.8926 185.258L76.7219 176.896L77.8195 168.533L78.9694 162.732H87.1229L81.5304 190.851H73.795ZM111.031 162.314C113.435 162.314 115.474 162.819 117.146 163.829C118.819 164.805 120.003 166.251 120.7 168.167C121.397 170.084 121.467 172.453 120.909 175.276L117.773 190.851H109.62L112.651 175.798C113.069 173.742 112.895 172.157 112.129 171.042C111.397 169.927 110.038 169.37 108.052 169.37C105.996 169.37 104.271 169.962 102.877 171.147C101.519 172.331 100.578 174.143 100.055 176.582L97.2327 190.851H89.0792L94.6717 162.732H102.407L100.787 170.676L99.637 168.272C100.996 166.216 102.668 164.718 104.655 163.777C106.675 162.801 108.801 162.314 111.031 162.314ZM126.64 201.409C125.211 201.409 123.8 201.182 122.406 200.729C120.978 200.276 119.845 199.684 119.009 198.952L122.772 193.098C123.364 193.621 124.027 194.039 124.758 194.353C125.525 194.666 126.361 194.823 127.267 194.823C128.312 194.823 129.218 194.562 129.985 194.039C130.786 193.517 131.57 192.628 132.337 191.374L134.584 187.82L135.316 186.983L150.16 162.732H158.209L139.497 192.733C138.104 194.928 136.762 196.653 135.473 197.907C134.218 199.196 132.877 200.102 131.448 200.625C130.055 201.147 128.452 201.409 126.64 201.409ZM132.86 191.949L126.117 162.732H134.271L139.393 186.252L132.86 191.949ZM155.943 190.851L163.679 152.069H171.832L168.539 168.429L166.344 176.635L165.09 183.847L163.679 190.851H155.943ZM173.923 191.269C171.762 191.269 169.863 190.886 168.226 190.119C166.623 189.353 165.369 188.185 164.463 186.617C163.591 185.015 163.156 183.011 163.156 180.607C163.156 178.063 163.47 175.676 164.097 173.446C164.724 171.216 165.647 169.282 166.867 167.645C168.086 165.972 169.567 164.666 171.309 163.725C173.087 162.784 175.09 162.314 177.32 162.314C179.515 162.314 181.536 162.819 183.383 163.829C185.23 164.805 186.711 166.234 187.826 168.115C188.941 169.962 189.498 172.227 189.498 174.91C189.498 177.244 189.097 179.422 188.296 181.443C187.495 183.429 186.38 185.154 184.951 186.617C183.557 188.081 181.92 189.231 180.038 190.067C178.156 190.868 176.118 191.269 173.923 191.269ZM172.982 184.527C174.62 184.527 176.048 184.143 177.268 183.377C178.487 182.575 179.446 181.495 180.142 180.136C180.874 178.743 181.24 177.122 181.24 175.276C181.24 173.359 180.683 171.843 179.568 170.728C178.453 169.613 176.867 169.056 174.811 169.056C173.243 169.056 171.832 169.457 170.578 170.258C169.323 171.025 168.348 172.105 167.651 173.499C166.954 174.857 166.606 176.46 166.606 178.307C166.606 180.223 167.163 181.739 168.278 182.854C169.393 183.969 170.961 184.527 172.982 184.527ZM206.716 191.269C203.859 191.269 201.368 190.746 199.242 189.701C197.117 188.656 195.461 187.192 194.277 185.311C193.127 183.429 192.552 181.217 192.552 178.673C192.552 175.537 193.284 172.749 194.747 170.31C196.211 167.836 198.214 165.885 200.758 164.457C203.336 163.028 206.263 162.314 209.539 162.314C212.431 162.314 214.922 162.836 217.013 163.882C219.138 164.927 220.776 166.39 221.926 168.272C223.11 170.119 223.703 172.331 223.703 174.91C223.703 178.011 222.971 180.798 221.507 183.272C220.044 185.746 218.04 187.698 215.497 189.126C212.953 190.555 210.026 191.269 206.716 191.269ZM207.239 184.579C208.842 184.579 210.253 184.196 211.472 183.429C212.727 182.628 213.702 181.53 214.399 180.136C215.096 178.743 215.445 177.122 215.445 175.276C215.445 173.394 214.887 171.878 213.772 170.728C212.657 169.579 211.089 169.004 209.068 169.004C207.465 169.004 206.037 169.404 204.782 170.206C203.563 170.972 202.587 172.053 201.855 173.446C201.159 174.84 200.81 176.46 200.81 178.307C200.81 180.223 201.368 181.757 202.483 182.906C203.598 184.022 205.183 184.579 207.239 184.579ZM239.032 191.269C236.872 191.269 234.868 190.781 233.022 189.806C231.175 188.795 229.694 187.349 228.579 185.468C227.464 183.586 226.906 181.321 226.906 178.673C226.906 176.304 227.29 174.126 228.056 172.14C228.858 170.154 229.973 168.429 231.401 166.965C232.83 165.502 234.485 164.369 236.367 163.568C238.248 162.732 240.269 162.314 242.43 162.314C244.625 162.314 246.524 162.697 248.127 163.463C249.729 164.23 250.966 165.415 251.837 167.018C252.743 168.586 253.196 170.572 253.196 172.976C253.196 175.554 252.883 177.959 252.256 180.189C251.663 182.384 250.757 184.318 249.538 185.99C248.318 187.628 246.82 188.917 245.043 189.858C243.301 190.799 241.297 191.269 239.032 191.269ZM241.541 184.527C243.144 184.527 244.555 184.143 245.775 183.377C247.029 182.575 248.005 181.495 248.701 180.136C249.433 178.743 249.799 177.122 249.799 175.276C249.799 173.359 249.224 171.843 248.074 170.728C246.959 169.613 245.391 169.056 243.37 169.056C241.802 169.056 240.391 169.457 239.137 170.258C237.882 171.025 236.889 172.105 236.158 173.499C235.461 174.857 235.112 176.46 235.112 178.307C235.112 180.223 235.67 181.739 236.785 182.854C237.935 183.969 239.52 184.527 241.541 184.527ZM247.081 190.851L248.231 185.258L250.008 176.896L251.106 168.533L254.398 152.069H262.552L254.817 190.851H247.081ZM264.349 201.409C262.92 201.409 261.509 201.182 260.115 200.729C258.687 200.276 257.554 199.684 256.718 198.952L260.481 193.098C261.074 193.621 261.736 194.039 262.467 194.353C263.234 194.666 264.07 194.823 264.976 194.823C266.022 194.823 266.928 194.562 267.694 194.039C268.495 193.517 269.279 192.628 270.046 191.374L272.294 187.82L273.025 186.983L287.869 162.732H295.918L277.207 192.733C275.813 194.928 274.471 196.653 273.182 197.907C271.928 199.196 270.586 200.102 269.158 200.625C267.764 201.147 266.161 201.409 264.349 201.409ZM270.569 191.949L263.826 162.732H271.98L277.102 186.252L270.569 191.949ZM321.155 191.269C318.995 191.269 316.991 190.781 315.144 189.806C313.298 188.795 311.817 187.349 310.702 185.468C309.587 183.586 309.029 181.321 309.029 178.673C309.029 176.304 309.413 174.126 310.179 172.14C310.981 170.154 312.096 168.429 313.524 166.965C314.953 165.502 316.608 164.369 318.489 163.568C320.371 162.732 322.392 162.314 324.552 162.314C326.887 162.314 328.89 162.749 330.563 163.62C332.236 164.491 333.472 165.85 334.274 167.697C335.11 169.509 335.406 171.861 335.162 174.753C334.988 178.063 334.309 180.973 333.124 183.481C331.939 185.955 330.336 187.872 328.316 189.231C326.329 190.59 323.943 191.269 321.155 191.269ZM323.664 184.527C325.267 184.527 326.678 184.143 327.897 183.377C329.152 182.575 330.127 181.495 330.824 180.136C331.556 178.743 331.922 177.122 331.922 175.276C331.922 173.359 331.347 171.843 330.197 170.728C329.082 169.613 327.514 169.056 325.493 169.056C323.925 169.056 322.514 169.457 321.26 170.258C320.005 171.025 319.012 172.105 318.28 173.499C317.584 174.857 317.235 176.46 317.235 178.307C317.235 180.223 317.793 181.739 318.908 182.854C320.057 183.969 321.643 184.527 323.664 184.527ZM329.256 190.851L330.354 185.258L332.183 176.896L333.281 168.533L334.431 162.732H342.584L336.992 190.851H329.256ZM366.492 162.314C368.897 162.314 370.935 162.819 372.607 163.829C374.28 164.805 375.465 166.251 376.162 168.167C376.858 170.084 376.928 172.453 376.371 175.276L373.235 190.851H365.081L368.113 175.798C368.531 173.742 368.356 172.157 367.59 171.042C366.858 169.927 365.499 169.37 363.513 169.37C361.457 169.37 359.733 169.962 358.339 171.147C356.98 172.331 356.039 174.143 355.516 176.582L352.694 190.851H344.541L350.133 162.732H357.868L356.248 170.676L355.098 168.272C356.457 166.216 358.13 164.718 360.116 163.777C362.137 162.801 364.262 162.314 366.492 162.314ZM382.101 201.409C380.673 201.409 379.261 201.182 377.868 200.729C376.439 200.276 375.307 199.684 374.47 198.952L378.233 193.098C378.826 193.621 379.488 194.039 380.22 194.353C380.986 194.666 381.822 194.823 382.728 194.823C383.774 194.823 384.68 194.562 385.446 194.039C386.248 193.517 387.032 192.628 387.798 191.374L390.046 187.82L390.777 186.983L405.621 162.732H413.67L394.959 192.733C393.565 194.928 392.223 196.653 390.934 197.907C389.68 199.196 388.338 200.102 386.91 200.625C385.516 201.147 383.913 201.409 382.101 201.409ZM388.321 191.949L381.578 162.732H389.732L394.854 186.252L388.321 191.949ZM423.616 191.269C421.595 191.269 419.871 190.868 418.442 190.067C417.013 189.231 415.986 188.046 415.358 186.513C414.766 184.945 414.679 183.098 415.097 180.973L419.958 156.512H428.111L423.251 180.92C423.042 182.105 423.163 183.046 423.616 183.743C424.069 184.44 424.906 184.788 426.125 184.788C426.683 184.788 427.24 184.701 427.798 184.527C428.39 184.353 428.93 184.109 429.418 183.795L430.62 189.597C429.61 190.224 428.495 190.659 427.275 190.903C426.056 191.147 424.836 191.269 423.616 191.269ZM413.006 169.631L414.261 163.359H433.756L432.502 169.631H413.006ZM456.835 162.314C459.205 162.314 461.226 162.819 462.898 163.829C464.571 164.805 465.755 166.251 466.452 168.167C467.184 170.084 467.271 172.453 466.714 175.276L463.578 190.851H455.424L458.456 175.798C458.874 173.742 458.699 172.157 457.933 171.042C457.201 169.927 455.842 169.37 453.856 169.37C451.8 169.37 450.076 169.962 448.682 171.147C447.323 172.331 446.382 174.143 445.859 176.582L443.037 190.851H434.883L442.619 152.069H450.772L447.062 170.676L445.441 168.272C446.8 166.216 448.473 164.718 450.459 163.777C452.48 162.801 454.605 162.314 456.835 162.314ZM471.021 190.851L476.613 162.732H484.714L479.122 190.851H471.021ZM482.049 158.812C480.62 158.812 479.47 158.411 478.599 157.61C477.728 156.773 477.293 155.763 477.293 154.578C477.293 153.184 477.78 152.035 478.756 151.129C479.767 150.188 481.073 149.717 482.676 149.717C484.105 149.717 485.255 150.118 486.126 150.92C487.032 151.686 487.485 152.644 487.485 153.794C487.485 155.293 486.979 156.512 485.969 157.453C484.993 158.359 483.687 158.812 482.049 158.812ZM508.642 162.314C511.046 162.314 513.085 162.819 514.757 163.829C516.43 164.805 517.615 166.251 518.311 168.167C519.008 170.084 519.078 172.453 518.52 175.276L515.384 190.851H507.231L510.262 175.798C510.681 173.742 510.506 172.157 509.74 171.042C509.008 169.927 507.649 169.37 505.663 169.37C503.607 169.37 501.882 169.962 500.489 171.147C499.13 172.331 498.189 174.143 497.666 176.582L494.844 190.851H486.69L492.283 162.732H500.018L498.398 170.676L497.248 168.272C498.607 166.216 500.28 164.718 502.266 163.777C504.287 162.801 506.412 162.314 508.642 162.314ZM534.899 201.409C532.181 201.409 529.672 201.095 527.372 200.468C525.107 199.841 523.156 198.917 521.518 197.698L525.386 191.792C526.501 192.698 527.93 193.429 529.672 193.987C531.449 194.544 533.313 194.823 535.264 194.823C538.087 194.823 540.195 194.213 541.589 192.994C543.017 191.774 543.975 189.962 544.463 187.558L545.456 182.488L547.338 175.903L548.592 168.795L549.742 162.732H557.53L552.878 186.147C551.798 191.548 549.742 195.433 546.711 197.802C543.714 200.207 539.777 201.409 534.899 201.409ZM536.101 189.492C533.801 189.492 531.71 189.022 529.829 188.081C527.947 187.14 526.449 185.799 525.334 184.056C524.219 182.279 523.661 180.154 523.661 177.68C523.661 175.52 524.045 173.516 524.811 171.669C525.613 169.823 526.71 168.202 528.104 166.808C529.533 165.38 531.188 164.282 533.069 163.516C534.986 162.714 537.076 162.314 539.341 162.314C541.397 162.314 543.261 162.697 544.934 163.463C546.606 164.23 547.895 165.467 548.801 167.174C549.742 168.882 550.091 171.164 549.847 174.021C549.638 177.122 548.958 179.84 547.808 182.175C546.658 184.474 545.09 186.269 543.104 187.558C541.153 188.847 538.819 189.492 536.101 189.492ZM538.296 182.802C539.899 182.802 541.31 182.454 542.529 181.757C543.749 181.06 544.707 180.102 545.404 178.882C546.101 177.628 546.449 176.199 546.449 174.596C546.449 172.889 545.892 171.547 544.777 170.572C543.662 169.561 542.111 169.056 540.125 169.056C538.522 169.056 537.094 169.404 535.839 170.101C534.62 170.798 533.644 171.774 532.912 173.028C532.216 174.248 531.867 175.659 531.867 177.262C531.867 178.969 532.442 180.328 533.592 181.339C534.742 182.314 536.31 182.802 538.296 182.802ZM567 172.506C565.606 172.506 564.457 172.07 563.551 171.199C562.645 170.293 562.192 169.16 562.192 167.802C562.192 166.164 562.714 164.857 563.76 163.882C564.84 162.871 566.129 162.366 567.627 162.366C569.021 162.366 570.154 162.801 571.025 163.673C571.931 164.544 572.384 165.676 572.384 167.07C572.384 168.15 572.122 169.108 571.6 169.944C571.112 170.746 570.467 171.373 569.666 171.826C568.864 172.279 567.976 172.506 567 172.506ZM556.442 198.9L562.401 186.356L563.237 191.269C561.843 191.269 560.693 190.834 559.787 189.962C558.882 189.056 558.429 187.924 558.429 186.565C558.429 184.927 558.951 183.621 559.997 182.645C561.077 181.635 562.366 181.129 563.864 181.129C565.258 181.129 566.39 181.565 567.262 182.436C568.167 183.307 568.62 184.44 568.62 185.833C568.62 186.6 568.481 187.314 568.202 187.976C567.924 188.638 567.453 189.475 566.791 190.485L561.565 198.9H556.442ZM53.5157 254.851L60.833 218.265H69.3524L62.0351 254.851H53.5157ZM99.7885 255.269C96.8964 255.269 94.3702 254.746 92.2099 253.701C90.0844 252.656 88.4293 251.192 87.2446 249.311C86.0599 247.429 85.4675 245.217 85.4675 242.673C85.4675 239.537 86.1993 236.749 87.6627 234.31C89.1262 231.836 91.1471 229.885 93.7256 228.457C96.3041 227.028 99.2658 226.314 102.611 226.314C105.607 226.314 108.203 226.941 110.399 228.195C112.594 229.415 114.214 231.157 115.259 233.422L108.36 236.871C107.768 235.547 106.932 234.589 105.851 233.997C104.806 233.37 103.552 233.056 102.088 233.056C100.485 233.056 99.0567 233.457 97.8024 234.258C96.548 235.025 95.5549 236.105 94.8232 237.499C94.0915 238.857 93.7256 240.443 93.7256 242.255C93.7256 244.171 94.2831 245.704 95.3981 246.854C96.548 247.969 98.1682 248.527 100.259 248.527C101.687 248.527 102.994 248.231 104.179 247.638C105.364 247.011 106.357 246.053 107.158 244.764L113.169 248.527C111.845 250.652 109.998 252.307 107.628 253.492C105.294 254.677 102.681 255.269 99.7885 255.269ZM128.168 255.269C126.008 255.269 124.004 254.781 122.158 253.806C120.311 252.795 118.83 251.349 117.715 249.468C116.6 247.586 116.042 245.321 116.042 242.673C116.042 240.304 116.426 238.126 117.192 236.14C117.994 234.154 119.109 232.429 120.537 230.965C121.966 229.502 123.621 228.369 125.503 227.568C127.384 226.732 129.405 226.314 131.566 226.314C133.9 226.314 135.904 226.749 137.576 227.62C139.249 228.491 140.486 229.85 141.287 231.697C142.123 233.509 142.419 235.861 142.176 238.753C142.001 242.063 141.322 244.973 140.137 247.481C138.952 249.955 137.35 251.872 135.329 253.231C133.343 254.59 130.956 255.269 128.168 255.269ZM130.677 248.527C132.28 248.527 133.691 248.143 134.911 247.377C136.165 246.575 137.141 245.495 137.837 244.136C138.569 242.743 138.935 241.122 138.935 239.276C138.935 237.359 138.36 235.843 137.21 234.728C136.095 233.613 134.527 233.056 132.506 233.056C130.938 233.056 129.527 233.457 128.273 234.258C127.018 235.025 126.025 236.105 125.294 237.499C124.597 238.857 124.248 240.46 124.248 242.307C124.248 244.223 124.806 245.739 125.921 246.854C127.071 247.969 128.656 248.527 130.677 248.527ZM136.269 254.851L137.367 249.258L139.196 240.896L140.294 232.533L141.444 226.732H149.597L144.005 254.851H136.269ZM173.505 226.314C175.91 226.314 177.948 226.819 179.621 227.829C181.293 228.805 182.478 230.251 183.175 232.167C183.872 234.084 183.941 236.453 183.384 239.276L180.248 254.851H172.094L175.126 239.798C175.544 237.742 175.37 236.157 174.603 235.042C173.871 233.927 172.512 233.37 170.526 233.37C168.47 233.37 166.746 233.962 165.352 235.147C163.993 236.331 163.052 238.143 162.53 240.582L159.707 254.851H151.554L157.146 226.732H164.882L163.261 234.676L162.111 232.272C163.47 230.216 165.143 228.718 167.129 227.777C169.15 226.801 171.275 226.314 173.505 226.314ZM217.18 255.269C214.322 255.269 211.831 254.746 209.706 253.701C207.58 252.656 205.925 251.192 204.74 249.311C203.59 247.429 203.015 245.217 203.015 242.673C203.015 239.537 203.747 236.749 205.211 234.31C206.674 231.836 208.678 229.885 211.221 228.457C213.8 227.028 216.727 226.314 220.002 226.314C222.894 226.314 225.385 226.836 227.476 227.882C229.602 228.927 231.239 230.39 232.389 232.272C233.574 234.119 234.166 236.331 234.166 238.91C234.166 242.011 233.434 244.798 231.971 247.272C230.507 249.746 228.504 251.698 225.96 253.126C223.417 254.555 220.49 255.269 217.18 255.269ZM217.702 248.579C219.305 248.579 220.716 248.196 221.936 247.429C223.19 246.628 224.166 245.53 224.863 244.136C225.56 242.743 225.908 241.122 225.908 239.276C225.908 237.394 225.351 235.878 224.236 234.728C223.121 233.579 221.553 233.004 219.532 233.004C217.929 233.004 216.5 233.404 215.246 234.206C214.026 234.972 213.051 236.053 212.319 237.446C211.622 238.84 211.274 240.46 211.274 242.307C211.274 244.223 211.831 245.757 212.946 246.906C214.061 248.022 215.646 248.579 217.702 248.579ZM258.642 226.314C261.046 226.314 263.085 226.819 264.757 227.829C266.43 228.805 267.615 230.251 268.311 232.167C269.008 234.084 269.078 236.453 268.521 239.276L265.385 254.851H257.231L260.262 239.798C260.681 237.742 260.506 236.157 259.74 235.042C259.008 233.927 257.649 233.37 255.663 233.37C253.607 233.37 251.882 233.962 250.489 235.147C249.13 236.331 248.189 238.143 247.666 240.582L244.844 254.851H236.69L242.283 226.732H250.018L248.398 234.676L247.248 232.272C248.607 230.216 250.28 228.718 252.266 227.777C254.287 226.801 256.412 226.314 258.642 226.314ZM272.828 254.851L280.563 216.069H288.717L280.981 254.851H272.828ZM290.482 265.409C289.054 265.409 287.642 265.182 286.249 264.729C284.82 264.276 283.688 263.684 282.851 262.952L286.614 257.098C287.207 257.621 287.869 258.039 288.601 258.353C289.367 258.666 290.203 258.823 291.109 258.823C292.155 258.823 293.061 258.562 293.827 258.039C294.629 257.517 295.413 256.628 296.179 255.374L298.427 251.82L299.158 250.983L314.002 226.732H322.051L303.34 256.733C301.946 258.928 300.604 260.653 299.315 261.907C298.061 263.196 296.719 264.102 295.291 264.625C293.897 265.147 292.294 265.409 290.482 265.409ZM296.702 255.949L289.959 226.732H298.113L303.235 250.252L296.702 255.949ZM375.46 226.314C377.829 226.314 379.833 226.819 381.47 227.829C383.108 228.805 384.275 230.251 384.972 232.167C385.669 234.084 385.721 236.453 385.129 239.276L382.045 254.851H373.892L376.871 239.851C377.324 237.76 377.184 236.157 376.453 235.042C375.721 233.927 374.449 233.37 372.637 233.37C370.721 233.37 369.135 233.944 367.881 235.094C366.627 236.209 365.756 237.986 365.268 240.425L362.393 254.851H354.24L357.219 239.851C357.637 237.76 357.48 236.157 356.748 235.042C356.051 233.927 354.797 233.37 352.985 233.37C351.069 233.37 349.483 233.944 348.229 235.094C346.975 236.209 346.086 238.021 345.563 240.53L342.741 254.851H334.587L340.18 226.732H347.915L346.452 233.892L345.198 232.272C346.487 230.251 348.09 228.753 350.006 227.777C351.922 226.801 353.961 226.314 356.121 226.314C357.863 226.314 359.431 226.627 360.825 227.254C362.219 227.882 363.351 228.822 364.222 230.077C365.128 231.296 365.651 232.829 365.79 234.676L362.654 233.892C364.048 231.418 365.825 229.537 367.986 228.247C370.181 226.958 372.672 226.314 375.46 226.314ZM402.209 255.269C400.048 255.269 398.045 254.781 396.198 253.806C394.351 252.795 392.87 251.349 391.755 249.468C390.64 247.586 390.083 245.321 390.083 242.673C390.083 240.304 390.466 238.126 391.233 236.14C392.034 234.154 393.149 232.429 394.578 230.965C396.006 229.502 397.661 228.369 399.543 227.568C401.425 226.732 403.445 226.314 405.606 226.314C407.94 226.314 409.944 226.749 411.616 227.62C413.289 228.491 414.526 229.85 415.327 231.697C416.164 233.509 416.46 235.861 416.216 238.753C416.042 242.063 415.362 244.973 414.177 247.481C412.993 249.955 411.39 251.872 409.369 253.231C407.383 254.59 404.996 255.269 402.209 255.269ZM404.717 248.527C406.32 248.527 407.731 248.143 408.951 247.377C410.205 246.575 411.181 245.495 411.878 244.136C412.609 242.743 412.975 241.122 412.975 239.276C412.975 237.359 412.4 235.843 411.251 234.728C410.136 233.613 408.568 233.056 406.547 233.056C404.979 233.056 403.567 233.457 402.313 234.258C401.059 235.025 400.066 236.105 399.334 237.499C398.637 238.857 398.289 240.46 398.289 242.307C398.289 244.223 398.846 245.739 399.961 246.854C401.111 247.969 402.696 248.527 404.717 248.527ZM410.31 254.851L411.407 249.258L413.237 240.896L414.334 232.533L415.484 226.732H423.638L418.045 254.851H410.31ZM433.748 249.206L435.525 239.119L450.629 226.732H461.24L445.507 239.851L440.96 243.196L433.748 249.206ZM425.594 254.851L433.329 216.069H441.483L433.748 254.851H425.594ZM446.762 254.851L439.549 243.039L445.246 236.819L456.222 254.851H446.762ZM473.055 255.269C470.128 255.269 467.585 254.746 465.425 253.701C463.299 252.656 461.644 251.192 460.459 249.311C459.275 247.429 458.682 245.217 458.682 242.673C458.682 239.537 459.379 236.749 460.773 234.31C462.201 231.836 464.153 229.885 466.627 228.457C469.135 227.028 472.01 226.314 475.251 226.314C478.003 226.314 480.373 226.836 482.359 227.882C484.345 228.892 485.878 230.321 486.958 232.167C488.073 233.979 488.631 236.157 488.631 238.701C488.631 239.432 488.578 240.164 488.474 240.896C488.404 241.628 488.3 242.324 488.16 242.987H464.902L465.738 238.23H484.345L481 239.694C481.279 238.126 481.192 236.819 480.739 235.774C480.286 234.694 479.554 233.875 478.543 233.317C477.533 232.725 476.313 232.429 474.885 232.429C473.108 232.429 471.592 232.864 470.338 233.735C469.118 234.572 468.195 235.739 467.567 237.237C466.94 238.736 466.627 240.425 466.627 242.307C466.627 244.467 467.219 246.088 468.404 247.168C469.623 248.213 471.453 248.736 473.892 248.736C475.32 248.736 476.697 248.509 478.021 248.056C479.345 247.603 480.477 246.959 481.418 246.122L484.815 251.506C483.178 252.795 481.331 253.753 479.275 254.381C477.254 254.973 475.181 255.269 473.055 255.269ZM64.4394 319.269C62.4184 319.269 60.6936 318.868 59.265 318.067C57.8364 317.231 56.8085 316.046 56.1813 314.513C55.5889 312.945 55.5018 311.098 55.92 308.973L60.7807 284.512H68.9343L64.0735 308.92C63.8644 310.105 63.9864 311.046 64.4394 311.743C64.8923 312.44 65.7286 312.788 66.9481 312.788C67.5056 312.788 68.0632 312.701 68.6207 312.527C69.213 312.353 69.7531 312.109 70.2409 311.795L71.443 317.597C70.4326 318.224 69.3175 318.659 68.098 318.903C66.8784 319.147 65.6589 319.269 64.4394 319.269ZM53.8293 297.631L55.0837 291.359H74.579L73.3246 297.631H53.8293ZM97.6582 290.314C100.028 290.314 102.049 290.819 103.721 291.829C105.394 292.805 106.578 294.251 107.275 296.167C108.007 298.084 108.094 300.453 107.537 303.276L104.401 318.851H96.247L99.2785 303.798C99.6966 301.742 99.5224 300.157 98.7558 299.042C98.0241 297.927 96.6652 297.37 94.679 297.37C92.6232 297.37 90.8984 297.962 89.5047 299.147C88.1458 300.331 87.205 302.143 86.6823 304.582L83.8599 318.851H75.7064L83.4418 280.069H91.5953L87.8844 298.676L86.2642 296.272C87.6231 294.216 89.2956 292.718 91.2817 291.777C93.3027 290.801 95.4282 290.314 97.6582 290.314ZM126.894 319.269C123.967 319.269 121.423 318.746 119.263 317.701C117.137 316.656 115.482 315.192 114.298 313.311C113.113 311.429 112.521 309.217 112.521 306.673C112.521 303.537 113.217 300.749 114.611 298.31C116.04 295.836 117.991 293.885 120.465 292.457C122.974 291.028 125.848 290.314 129.089 290.314C131.842 290.314 134.211 290.836 136.197 291.882C138.183 292.892 139.716 294.321 140.797 296.167C141.912 297.979 142.469 300.157 142.469 302.701C142.469 303.432 142.417 304.164 142.312 304.896C142.243 305.628 142.138 306.324 141.999 306.987H118.74L119.577 302.23H138.183L134.838 303.694C135.117 302.126 135.03 300.819 134.577 299.774C134.124 298.694 133.392 297.875 132.382 297.317C131.371 296.725 130.152 296.429 128.723 296.429C126.946 296.429 125.43 296.864 124.176 297.735C122.956 298.572 122.033 299.739 121.406 301.237C120.779 302.736 120.465 304.425 120.465 306.307C120.465 308.467 121.057 310.088 122.242 311.168C123.462 312.213 125.291 312.736 127.73 312.736C129.159 312.736 130.535 312.509 131.859 312.056C133.183 311.603 134.316 310.959 135.256 310.122L138.654 315.506C137.016 316.795 135.169 317.753 133.113 318.381C131.093 318.973 129.019 319.269 126.894 319.269ZM185.637 290.314C188.007 290.314 190.01 290.819 191.648 291.829C193.286 292.805 194.453 294.251 195.15 296.167C195.847 298.084 195.899 300.453 195.307 303.276L192.223 318.851H184.069L187.049 303.851C187.502 301.76 187.362 300.157 186.63 299.042C185.899 297.927 184.627 297.37 182.815 297.37C180.899 297.37 179.313 297.944 178.059 299.094C176.804 300.209 175.933 301.986 175.445 304.425L172.571 318.851H164.417L167.396 303.851C167.815 301.76 167.658 300.157 166.926 299.042C166.229 297.927 164.975 297.37 163.163 297.37C161.246 297.37 159.661 297.944 158.407 299.094C157.152 300.209 156.264 302.021 155.741 304.53L152.919 318.851H144.765L150.358 290.732H158.093L156.63 297.892L155.375 296.272C156.664 294.251 158.267 292.753 160.184 291.777C162.1 290.801 164.139 290.314 166.299 290.314C168.041 290.314 169.609 290.627 171.003 291.254C172.397 291.882 173.529 292.822 174.4 294.077C175.306 295.296 175.829 296.829 175.968 298.676L172.832 297.892C174.226 295.418 176.003 293.537 178.163 292.247C180.358 290.958 182.85 290.314 185.637 290.314ZM225.832 319.269C223.811 319.269 222.086 318.868 220.657 318.067C219.229 317.231 218.201 316.046 217.574 314.513C216.981 312.945 216.894 311.098 217.312 308.973L222.173 284.512H230.327L225.466 308.92C225.257 310.105 225.379 311.046 225.832 311.743C226.285 312.44 227.121 312.788 228.34 312.788C228.898 312.788 229.455 312.701 230.013 312.527C230.605 312.353 231.145 312.109 231.633 311.795L232.835 317.597C231.825 318.224 230.71 318.659 229.49 318.903C228.271 319.147 227.051 319.269 225.832 319.269ZM215.222 297.631L216.476 291.359H235.971L234.717 297.631H215.222ZM259.051 290.314C261.42 290.314 263.441 290.819 265.113 291.829C266.786 292.805 267.971 294.251 268.668 296.167C269.399 298.084 269.486 300.453 268.929 303.276L265.793 318.851H257.639L260.671 303.798C261.089 301.742 260.915 300.157 260.148 299.042C259.416 297.927 258.058 297.37 256.071 297.37C254.016 297.37 252.291 297.962 250.897 299.147C249.538 300.331 248.597 302.143 248.075 304.582L245.252 318.851H237.099L244.834 280.069H252.988L249.277 298.676L247.657 296.272C249.015 294.216 250.688 292.718 252.674 291.777C254.695 290.801 256.821 290.314 259.051 290.314ZM273.236 318.851L278.828 290.732H286.93L281.337 318.851H273.236ZM284.264 286.812C282.835 286.812 281.686 286.411 280.815 285.61C279.943 284.773 279.508 283.763 279.508 282.578C279.508 281.184 279.996 280.035 280.971 279.129C281.982 278.188 283.288 277.717 284.891 277.717C286.32 277.717 287.47 278.118 288.341 278.92C289.247 279.686 289.7 280.644 289.7 281.794C289.7 283.293 289.195 284.512 288.184 285.453C287.208 286.359 285.902 286.812 284.264 286.812ZM310.857 290.314C313.262 290.314 315.3 290.819 316.973 291.829C318.645 292.805 319.83 294.251 320.527 296.167C321.224 298.084 321.293 300.453 320.736 303.276L317.6 318.851H309.446L312.478 303.798C312.896 301.742 312.722 300.157 311.955 299.042C311.223 297.927 309.864 297.37 307.878 297.37C305.822 297.37 304.098 297.962 302.704 299.147C301.345 300.331 300.404 302.143 299.882 304.582L297.059 318.851H288.906L294.498 290.732H302.233L300.613 298.676L299.463 296.272C300.822 294.216 302.495 292.718 304.481 291.777C306.502 290.801 308.627 290.314 310.857 290.314ZM333.196 313.206L334.973 303.119L350.078 290.732H360.688L344.956 303.851L340.409 307.196L333.196 313.206ZM325.043 318.851L332.778 280.069H340.932L333.196 318.851H325.043ZM346.211 318.851L338.998 307.039L344.695 300.819L355.671 318.851H346.211ZM362.951 319.269C361.558 319.269 360.408 318.834 359.502 317.962C358.596 317.056 358.143 315.924 358.143 314.565C358.143 312.927 358.665 311.621 359.711 310.645C360.791 309.635 362.08 309.129 363.578 309.129C364.972 309.129 366.105 309.565 366.976 310.436C367.882 311.307 368.335 312.44 368.335 313.833C368.335 314.914 368.073 315.872 367.551 316.708C367.063 317.509 366.418 318.137 365.617 318.59C364.815 319.043 363.927 319.269 362.951 319.269ZM374.619 297.422L380.525 284.878L381.361 289.791C379.967 289.791 378.818 289.355 377.912 288.484C377.006 287.578 376.553 286.446 376.553 285.087C376.553 283.449 377.093 282.143 378.173 281.167C379.253 280.157 380.525 279.651 381.988 279.651C383.382 279.651 384.515 280.087 385.386 280.958C386.292 281.829 386.745 282.961 386.745 284.355C386.745 285.122 386.605 285.836 386.327 286.498C386.083 287.16 385.63 287.996 384.968 289.007L379.793 297.422H374.619ZM386.954 297.422L392.86 284.878L393.696 289.791C392.302 289.791 391.152 289.355 390.246 288.484C389.341 287.578 388.888 286.446 388.888 285.087C388.888 283.449 389.428 282.143 390.508 281.167C391.588 280.157 392.86 279.651 394.323 279.651C395.717 279.651 396.849 280.087 397.721 280.958C398.627 281.829 399.079 282.961 399.079 284.355C399.079 285.122 398.94 285.836 398.661 286.498C398.417 287.16 397.964 287.996 397.302 289.007L392.128 297.422H386.954Z" fill="#0066CC"/>
<path d="M514.178 361.674C512.505 361.674 510.897 361.406 509.353 360.87C507.831 360.313 506.652 359.605 505.815 358.747L506.748 356.914C507.542 357.686 508.603 358.34 509.932 358.876C511.283 359.391 512.698 359.648 514.178 359.648C515.593 359.648 516.74 359.476 517.62 359.133C518.52 358.769 519.174 358.286 519.582 357.686C520.01 357.085 520.225 356.421 520.225 355.692C520.225 354.813 519.967 354.105 519.453 353.569C518.96 353.033 518.306 352.615 517.491 352.315C516.676 351.993 515.775 351.714 514.789 351.478C513.803 351.242 512.816 350.996 511.83 350.738C510.844 350.46 509.932 350.095 509.096 349.645C508.281 349.195 507.617 348.605 507.102 347.876C506.609 347.125 506.362 346.15 506.362 344.949C506.362 343.834 506.652 342.815 507.231 341.893C507.831 340.95 508.742 340.199 509.965 339.642C511.187 339.063 512.752 338.774 514.66 338.774C515.926 338.774 517.18 338.956 518.424 339.32C519.667 339.663 520.739 340.146 521.64 340.768L520.836 342.665C519.871 342.022 518.842 341.55 517.748 341.25C516.676 340.95 515.636 340.8 514.628 340.8C513.277 340.8 512.162 340.982 511.283 341.347C510.404 341.711 509.75 342.204 509.321 342.826C508.914 343.427 508.71 344.113 508.71 344.885C508.71 345.764 508.957 346.471 509.45 347.007C509.965 347.544 510.629 347.962 511.444 348.262C512.28 348.562 513.192 348.83 514.178 349.066C515.164 349.302 516.14 349.559 517.105 349.838C518.091 350.117 518.992 350.481 519.807 350.931C520.643 351.36 521.308 351.939 521.801 352.668C522.315 353.397 522.573 354.352 522.573 355.531C522.573 356.624 522.273 357.643 521.672 358.586C521.072 359.508 520.15 360.259 518.906 360.838C517.684 361.395 516.108 361.674 514.178 361.674ZM534.159 361.642C532.53 361.642 531.061 361.277 529.753 360.548C528.466 359.798 527.448 358.779 526.697 357.493C525.947 356.185 525.572 354.695 525.572 353.022C525.572 351.328 525.947 349.838 526.697 348.551C527.448 347.265 528.466 346.257 529.753 345.528C531.039 344.799 532.508 344.434 534.159 344.434C535.832 344.434 537.311 344.799 538.598 345.528C539.906 346.257 540.924 347.265 541.653 348.551C542.404 349.838 542.779 351.328 542.779 353.022C542.779 354.695 542.404 356.185 541.653 357.493C540.924 358.779 539.906 359.798 538.598 360.548C537.29 361.277 535.81 361.642 534.159 361.642ZM534.159 359.616C535.382 359.616 536.464 359.348 537.408 358.812C538.351 358.254 539.091 357.482 539.627 356.496C540.185 355.488 540.463 354.33 540.463 353.022C540.463 351.693 540.185 350.535 539.627 349.548C539.091 348.562 538.351 347.801 537.408 347.265C536.464 346.707 535.392 346.429 534.191 346.429C532.991 346.429 531.919 346.707 530.975 347.265C530.032 347.801 529.281 348.562 528.724 349.548C528.166 350.535 527.887 351.693 527.887 353.022C527.887 354.33 528.166 355.488 528.724 356.496C529.281 357.482 530.032 358.254 530.975 358.812C531.919 359.348 532.98 359.616 534.159 359.616ZM554.453 361.642C552.781 361.642 551.28 361.277 549.95 360.548C548.642 359.798 547.613 358.779 546.862 357.493C546.112 356.185 545.737 354.695 545.737 353.022C545.737 351.328 546.112 349.838 546.862 348.551C547.613 347.265 548.642 346.257 549.95 345.528C551.28 344.799 552.781 344.434 554.453 344.434C555.89 344.434 557.187 344.713 558.345 345.271C559.503 345.828 560.414 346.664 561.079 347.779L559.374 348.937C558.795 348.08 558.077 347.447 557.219 347.04C556.362 346.632 555.429 346.429 554.421 346.429C553.22 346.429 552.137 346.707 551.172 347.265C550.208 347.801 549.446 348.562 548.889 349.548C548.331 350.535 548.053 351.693 548.053 353.022C548.053 354.352 548.331 355.509 548.889 356.496C549.446 357.482 550.208 358.254 551.172 358.812C552.137 359.348 553.22 359.616 554.421 359.616C555.429 359.616 556.362 359.412 557.219 359.005C558.077 358.597 558.795 357.975 559.374 357.139L561.079 358.297C560.414 359.391 559.503 360.227 558.345 360.806C557.187 361.363 555.89 361.642 554.453 361.642ZM565.565 361.481V344.595H567.752V349.195L567.527 348.391C567.999 347.104 568.792 346.128 569.907 345.464C571.022 344.777 572.405 344.434 574.056 344.434V346.654C573.97 346.654 573.885 346.654 573.799 346.654C573.713 346.632 573.627 346.622 573.542 346.622C571.762 346.622 570.368 347.168 569.36 348.262C568.353 349.334 567.849 350.867 567.849 352.861V361.481H565.565ZM587.549 361.481V357.75L587.452 357.139V350.899C587.452 349.463 587.045 348.358 586.23 347.586C585.437 346.814 584.247 346.429 582.66 346.429C581.566 346.429 580.526 346.611 579.54 346.975C578.554 347.34 577.717 347.822 577.031 348.423L576.002 346.718C576.86 345.989 577.889 345.431 579.09 345.045C580.29 344.638 581.556 344.434 582.885 344.434C585.072 344.434 586.755 344.981 587.935 346.075C589.135 347.147 589.736 348.787 589.736 350.996V361.481H587.549ZM581.727 361.642C580.462 361.642 579.358 361.438 578.414 361.031C577.492 360.602 576.785 360.023 576.291 359.294C575.798 358.544 575.552 357.686 575.552 356.721C575.552 355.842 575.755 355.048 576.163 354.341C576.592 353.612 577.278 353.033 578.221 352.604C579.186 352.154 580.473 351.929 582.081 351.929H587.903V353.633H582.145C580.516 353.633 579.379 353.923 578.736 354.502C578.114 355.081 577.803 355.799 577.803 356.657C577.803 357.622 578.178 358.393 578.929 358.972C579.679 359.551 580.73 359.841 582.081 359.841C583.367 359.841 584.472 359.551 585.394 358.972C586.337 358.372 587.023 357.514 587.452 356.399L587.967 357.975C587.538 359.09 586.787 359.98 585.715 360.645C584.665 361.31 583.335 361.642 581.727 361.642ZM601.278 361.642C599.691 361.642 598.469 361.213 597.611 360.355C596.753 359.498 596.324 358.286 596.324 356.721V340.864H598.608V356.592C598.608 357.579 598.855 358.34 599.348 358.876C599.862 359.412 600.591 359.68 601.535 359.68C602.543 359.68 603.379 359.391 604.044 358.812L604.848 360.452C604.398 360.859 603.851 361.16 603.207 361.353C602.586 361.546 601.942 361.642 601.278 361.642ZM593.301 346.493V344.595H603.754V346.493H593.301ZM615.581 361.642C613.822 361.642 612.279 361.277 610.949 360.548C609.62 359.798 608.58 358.779 607.829 357.493C607.079 356.185 606.704 354.695 606.704 353.022C606.704 351.35 607.057 349.87 607.765 348.584C608.494 347.297 609.48 346.289 610.724 345.56C611.989 344.81 613.404 344.434 614.97 344.434C616.556 344.434 617.961 344.799 619.183 345.528C620.427 346.236 621.402 347.243 622.11 348.551C622.818 349.838 623.171 351.328 623.171 353.022C623.171 353.129 623.161 353.247 623.139 353.376C623.139 353.483 623.139 353.601 623.139 353.73H608.44V352.025H621.917L621.016 352.7C621.016 351.478 620.748 350.395 620.212 349.452C619.698 348.487 618.99 347.737 618.09 347.2C617.189 346.664 616.149 346.396 614.97 346.396C613.812 346.396 612.772 346.664 611.85 347.2C610.928 347.737 610.209 348.487 609.695 349.452C609.18 350.417 608.923 351.521 608.923 352.765V353.119C608.923 354.405 609.202 355.542 609.759 356.528C610.338 357.493 611.131 358.254 612.139 358.812C613.168 359.348 614.337 359.616 615.645 359.616C616.674 359.616 617.628 359.433 618.508 359.069C619.408 358.704 620.18 358.147 620.823 357.396L622.11 358.876C621.36 359.777 620.416 360.463 619.28 360.934C618.165 361.406 616.932 361.642 615.581 361.642ZM632.355 361.642C630.961 361.642 629.642 361.449 628.399 361.063C627.155 360.656 626.179 360.152 625.472 359.551L626.501 357.75C627.187 358.265 628.066 358.715 629.138 359.101C630.21 359.466 631.336 359.648 632.515 359.648C634.124 359.648 635.282 359.401 635.989 358.908C636.697 358.393 637.051 357.718 637.051 356.882C637.051 356.26 636.847 355.777 636.439 355.434C636.054 355.07 635.539 354.802 634.896 354.63C634.252 354.437 633.534 354.277 632.741 354.148C631.947 354.019 631.154 353.869 630.361 353.698C629.589 353.526 628.881 353.279 628.238 352.958C627.594 352.615 627.069 352.154 626.662 351.575C626.276 350.996 626.083 350.224 626.083 349.259C626.083 348.337 626.34 347.511 626.855 346.782C627.369 346.053 628.12 345.485 629.106 345.078C630.114 344.649 631.336 344.434 632.773 344.434C633.866 344.434 634.96 344.584 636.054 344.885C637.147 345.163 638.048 345.539 638.755 346.01L637.758 347.844C637.008 347.329 636.204 346.965 635.346 346.75C634.488 346.514 633.631 346.396 632.773 346.396C631.25 346.396 630.125 346.664 629.396 347.2C628.688 347.715 628.334 348.38 628.334 349.195C628.334 349.838 628.527 350.342 628.913 350.706C629.321 351.071 629.846 351.36 630.489 351.575C631.154 351.768 631.872 351.929 632.644 352.057C633.438 352.186 634.22 352.347 634.992 352.54C635.785 352.711 636.504 352.958 637.147 353.279C637.812 353.58 638.337 354.019 638.723 354.598C639.131 355.156 639.334 355.895 639.334 356.817C639.334 357.804 639.055 358.662 638.498 359.391C637.962 360.098 637.169 360.656 636.118 361.063C635.089 361.449 633.834 361.642 632.355 361.642Z" fill="#0066CC"/>
<path d="M471.765 386.685V386.17L480.063 376.006H480.899L472.601 386.17L472.172 386.041H484.351V386.685H471.765ZM480.385 391.016V386.685V386.041V382.224H481.092V391.016H480.385ZM487.476 391.016L494.166 376.371L494.467 376.671H484.667L485.01 376.349V379.63H484.303V376.006H494.874V376.521L488.27 391.016H487.476ZM502.479 391.102C501.35 391.102 500.342 390.794 499.455 390.18C498.583 389.551 497.904 388.672 497.418 387.542C496.932 386.399 496.689 385.055 496.689 383.511C496.689 381.967 496.932 380.631 497.418 379.501C497.904 378.358 498.583 377.479 499.455 376.864C500.342 376.235 501.35 375.92 502.479 375.92C503.637 375.92 504.645 376.235 505.502 376.864C506.374 377.479 507.053 378.358 507.539 379.501C508.025 380.631 508.268 381.967 508.268 383.511C508.268 385.055 508.025 386.399 507.539 387.542C507.053 388.672 506.374 389.551 505.502 390.18C504.645 390.794 503.637 391.102 502.479 391.102ZM502.479 390.437C503.494 390.437 504.38 390.158 505.138 389.601C505.895 389.043 506.489 388.25 506.917 387.221C507.346 386.177 507.561 384.941 507.561 383.511C507.561 382.067 507.346 380.831 506.917 379.801C506.489 378.772 505.895 377.979 505.138 377.421C504.38 376.864 503.494 376.585 502.479 376.585C501.478 376.585 500.592 376.864 499.82 377.421C499.062 377.979 498.469 378.772 498.04 379.801C497.626 380.831 497.418 382.067 497.418 383.511C497.418 384.941 497.626 386.177 498.04 387.221C498.469 388.25 499.062 389.043 499.82 389.601C500.592 390.158 501.478 390.437 502.479 390.437ZM517.686 391.016V376.006H523.776C525.348 376.006 526.585 376.328 527.485 376.971C528.4 377.614 528.858 378.565 528.858 379.823C528.858 380.638 528.657 381.324 528.257 381.881C527.871 382.439 527.328 382.853 526.627 383.125C525.941 383.397 525.148 383.532 524.247 383.532L524.612 383.189C525.727 383.189 526.656 383.339 527.399 383.64C528.143 383.94 528.707 384.376 529.093 384.948C529.479 385.519 529.672 386.227 529.672 387.071C529.672 388.328 529.215 389.301 528.3 389.987C527.399 390.673 526.034 391.016 524.204 391.016H517.686ZM518.415 390.373H524.247C525.777 390.373 526.942 390.108 527.743 389.579C528.543 389.036 528.943 388.193 528.943 387.049C528.943 385.891 528.543 385.048 527.743 384.519C526.942 383.976 525.777 383.704 524.247 383.704H518.286V383.082H523.797C525.169 383.082 526.234 382.811 526.992 382.267C527.764 381.724 528.15 380.924 528.15 379.866C528.15 378.808 527.764 378.007 526.992 377.464C526.234 376.921 525.169 376.649 523.797 376.649H518.415V390.373ZM539.986 391.102C538.885 391.102 537.863 390.916 536.92 390.544C535.976 390.158 535.154 389.622 534.454 388.936C533.754 388.25 533.21 387.449 532.824 386.534C532.438 385.605 532.245 384.597 532.245 383.511C532.245 382.425 532.438 381.424 532.824 380.509C533.21 379.58 533.754 378.772 534.454 378.086C535.154 377.4 535.976 376.871 536.92 376.499C537.863 376.113 538.885 375.92 539.986 375.92C541.001 375.92 541.959 376.085 542.86 376.414C543.76 376.742 544.539 377.243 545.197 377.915L544.746 378.386C544.075 377.743 543.338 377.286 542.538 377.014C541.752 376.728 540.908 376.585 540.008 376.585C539.007 376.585 538.078 376.764 537.22 377.121C536.362 377.464 535.612 377.95 534.969 378.579C534.34 379.208 533.846 379.944 533.489 380.788C533.146 381.617 532.974 382.525 532.974 383.511C532.974 384.497 533.146 385.412 533.489 386.256C533.846 387.085 534.34 387.814 534.969 388.443C535.612 389.072 536.362 389.565 537.22 389.922C538.078 390.265 539.007 390.437 540.008 390.437C540.908 390.437 541.752 390.301 542.538 390.03C543.338 389.744 544.075 389.272 544.746 388.614L545.197 389.086C544.539 389.758 543.76 390.265 542.86 390.609C541.959 390.937 541.001 391.102 539.986 391.102ZM553.105 385.634V384.991H558.53V385.634H553.105ZM570.898 391.102C569.769 391.102 568.739 390.909 567.81 390.523C566.881 390.137 566.173 389.636 565.687 389.022L566.073 388.507C566.502 389.05 567.146 389.508 568.003 389.879C568.861 390.251 569.819 390.437 570.877 390.437C572.306 390.437 573.392 390.115 574.136 389.472C574.879 388.814 575.251 387.942 575.251 386.856C575.251 385.77 574.872 384.905 574.114 384.262C573.371 383.604 572.206 383.275 570.619 383.275H569.783V382.761L574.672 376.392L574.758 376.671H566.181V376.006H575.401V376.521L570.512 382.889L570.298 382.632H570.684C572.456 382.632 573.778 383.025 574.65 383.811C575.522 384.583 575.958 385.598 575.958 386.856C575.958 387.685 575.765 388.421 575.379 389.065C574.994 389.694 574.422 390.194 573.664 390.566C572.921 390.923 571.999 391.102 570.898 391.102ZM582.793 375.92C584.094 375.92 585.181 376.228 586.053 376.842C586.939 377.443 587.604 378.308 588.047 379.437C588.49 380.566 588.712 381.91 588.712 383.468C588.712 385.155 588.44 386.563 587.897 387.692C587.354 388.822 586.589 389.672 585.602 390.244C584.63 390.816 583.501 391.102 582.214 391.102C581.585 391.102 580.992 391.052 580.435 390.952C579.877 390.837 579.37 390.637 578.912 390.351L579.234 389.772C579.606 390.001 580.049 390.173 580.563 390.287C581.092 390.387 581.635 390.437 582.193 390.437C583.951 390.437 585.352 389.865 586.396 388.722C587.454 387.578 587.982 385.863 587.982 383.575C587.982 383.218 587.961 382.775 587.918 382.246C587.875 381.703 587.775 381.174 587.618 380.659L587.875 380.509C587.818 381.41 587.561 382.182 587.103 382.825C586.66 383.454 586.067 383.94 585.324 384.283C584.595 384.612 583.78 384.776 582.879 384.776C581.879 384.776 581.007 384.597 580.263 384.24C579.52 383.883 578.941 383.375 578.526 382.718C578.112 382.046 577.904 381.267 577.904 380.38C577.904 379.48 578.112 378.701 578.526 378.043C578.955 377.371 579.534 376.85 580.263 376.478C581.007 376.106 581.85 375.92 582.793 375.92ZM582.793 376.564C581.979 376.564 581.257 376.721 580.628 377.035C579.999 377.35 579.506 377.793 579.148 378.365C578.805 378.937 578.634 379.601 578.634 380.359C578.634 381.503 579.02 382.425 579.791 383.125C580.563 383.811 581.614 384.154 582.943 384.154C583.815 384.154 584.58 383.983 585.238 383.64C585.91 383.297 586.431 382.839 586.803 382.267C587.175 381.681 587.361 381.031 587.361 380.316C587.361 379.716 587.189 379.13 586.846 378.558C586.503 377.972 585.995 377.493 585.324 377.121C584.652 376.749 583.808 376.564 582.793 376.564ZM595.567 375.92C596.868 375.92 597.954 376.228 598.826 376.842C599.712 377.443 600.377 378.308 600.82 379.437C601.263 380.566 601.485 381.91 601.485 383.468C601.485 385.155 601.213 386.563 600.67 387.692C600.127 388.822 599.362 389.672 598.376 390.244C597.404 390.816 596.274 391.102 594.988 391.102C594.359 391.102 593.766 391.052 593.208 390.952C592.651 390.837 592.143 390.637 591.686 390.351L592.007 389.772C592.379 390.001 592.822 390.173 593.337 390.287C593.866 390.387 594.409 390.437 594.966 390.437C596.725 390.437 598.126 389.865 599.169 388.722C600.227 387.578 600.756 385.863 600.756 383.575C600.756 383.218 600.734 382.775 600.692 382.246C600.649 381.703 600.549 381.174 600.391 380.659L600.649 380.509C600.591 381.41 600.334 382.182 599.877 382.825C599.434 383.454 598.84 383.94 598.097 384.283C597.368 384.612 596.553 384.776 595.653 384.776C594.652 384.776 593.78 384.597 593.037 384.24C592.293 383.883 591.714 383.375 591.3 382.718C590.885 382.046 590.678 381.267 590.678 380.38C590.678 379.48 590.885 378.701 591.3 378.043C591.729 377.371 592.308 376.85 593.037 376.478C593.78 376.106 594.623 375.92 595.567 375.92ZM595.567 376.564C594.752 376.564 594.03 376.721 593.401 377.035C592.772 377.35 592.279 377.793 591.922 378.365C591.578 378.937 591.407 379.601 591.407 380.359C591.407 381.503 591.793 382.425 592.565 383.125C593.337 383.811 594.387 384.154 595.717 384.154C596.589 384.154 597.354 383.983 598.011 383.64C598.683 383.297 599.205 382.839 599.577 382.267C599.948 381.681 600.134 381.031 600.134 380.316C600.134 379.716 599.963 379.13 599.619 378.558C599.276 377.972 598.769 377.493 598.097 377.121C597.425 376.749 596.582 376.564 595.567 376.564ZM610.869 391.016V376.006H616.959C618.531 376.006 619.768 376.328 620.668 376.971C621.583 377.614 622.04 378.565 622.04 379.823C622.04 380.638 621.84 381.324 621.44 381.881C621.054 382.439 620.511 382.853 619.81 383.125C619.124 383.397 618.331 383.532 617.43 383.532L617.795 383.189C618.91 383.189 619.839 383.339 620.582 383.64C621.326 383.94 621.89 384.376 622.276 384.948C622.662 385.519 622.855 386.227 622.855 387.071C622.855 388.328 622.398 389.301 621.483 389.987C620.582 390.673 619.217 391.016 617.387 391.016H610.869ZM611.598 390.373H617.43C618.96 390.373 620.125 390.108 620.925 389.579C621.726 389.036 622.126 388.193 622.126 387.049C622.126 385.891 621.726 385.048 620.925 384.519C620.125 383.976 618.96 383.704 617.43 383.704H611.469V383.082H616.98C618.352 383.082 619.417 382.811 620.175 382.267C620.947 381.724 621.333 380.924 621.333 379.866C621.333 378.808 620.947 378.007 620.175 377.464C619.417 376.921 618.352 376.649 616.98 376.649H611.598V390.373ZM633.169 391.102C632.068 391.102 631.046 390.916 630.103 390.544C629.159 390.158 628.337 389.622 627.637 388.936C626.937 388.25 626.393 387.449 626.007 386.534C625.621 385.605 625.428 384.597 625.428 383.511C625.428 382.425 625.621 381.424 626.007 380.509C626.393 379.58 626.937 378.772 627.637 378.086C628.337 377.4 629.159 376.871 630.103 376.499C631.046 376.113 632.068 375.92 633.169 375.92C634.184 375.92 635.142 376.085 636.042 376.414C636.943 376.742 637.722 377.243 638.38 377.915L637.929 378.386C637.258 377.743 636.521 377.286 635.721 377.014C634.935 376.728 634.091 376.585 633.191 376.585C632.19 376.585 631.261 376.764 630.403 377.121C629.545 377.464 628.795 377.95 628.152 378.579C627.523 379.208 627.029 379.944 626.672 380.788C626.329 381.617 626.157 382.525 626.157 383.511C626.157 384.497 626.329 385.412 626.672 386.256C627.029 387.085 627.523 387.814 628.152 388.443C628.795 389.072 629.545 389.565 630.403 389.922C631.261 390.265 632.19 390.437 633.191 390.437C634.091 390.437 634.935 390.301 635.721 390.03C636.521 389.744 637.258 389.272 637.929 388.614L638.38 389.086C637.722 389.758 636.943 390.265 636.042 390.609C635.142 390.937 634.184 391.102 633.169 391.102Z" fill="#0066CC"/>
</svg>
