<svg width="868" height="41" viewBox="0 0 868 41" fill="none" xmlns="http://www.w3.org/2000/svg">
<path d="M231 20.0001L782 20" stroke="#263238" stroke-opacity="0.4" stroke-linecap="round" stroke-linejoin="round" stroke-dasharray="3 3"/>
<g opacity="0.3">
<path d="M798 16.8L798 17.61L798 23.23L798 24.04L834.7 39.84L852.65 32.07L857.47 32.07L857.47 20.82L857.47 20.02L857.47 8.77002L852.65 8.77002L834.7 1.00003L798 16.8Z" stroke="#D32EFF" stroke-linecap="round" stroke-linejoin="round"/>
<path d="M834.43 15.06C833.37 15.06 832.334 15.3744 831.452 15.9634C830.571 16.5523 829.884 17.3894 829.478 18.3688C829.073 19.3483 828.966 20.426 829.173 21.4657C829.38 22.5054 829.891 23.4605 830.64 24.2101C831.39 24.9597 832.345 25.4702 833.385 25.677C834.424 25.8839 835.502 25.7777 836.481 25.372C837.461 24.9663 838.298 24.2793 838.887 23.3979C839.476 22.5164 839.79 21.4801 839.79 20.42C839.79 18.9985 839.226 17.6351 838.22 16.6299C837.215 15.6247 835.852 15.06 834.43 15.06Z" stroke="#D32EFF" stroke-linecap="round" stroke-linejoin="round"/>
<path d="M829.07 20.42L798.27 20.42" stroke="#D32EFF" stroke-linecap="round" stroke-linejoin="round"/>
<path d="M859.61 9.09998L859.61 31.87L866.57 31.87L866.57 9.09998L859.61 9.09998Z" stroke="#D32EFF" stroke-linecap="round" stroke-linejoin="round"/>
</g>
<path d="M36.736 28V11.2H43.024C44.448 11.2 45.672 11.432 46.696 11.896C47.72 12.344 48.504 13 49.048 13.864C49.608 14.712 49.888 15.744 49.888 16.96C49.888 18.144 49.608 19.168 49.048 20.032C48.504 20.88 47.72 21.536 46.696 22C45.672 22.448 44.448 22.672 43.024 22.672H37.72L38.512 21.856V28H36.736ZM48.208 28L43.888 21.904H45.808L50.152 28H48.208ZM38.512 22L37.72 21.16H42.976C44.656 21.16 45.928 20.792 46.792 20.056C47.672 19.32 48.112 18.288 48.112 16.96C48.112 15.616 47.672 14.576 46.792 13.84C45.928 13.104 44.656 12.736 42.976 12.736H37.72L38.512 11.896V22ZM59.0718 28.12C57.7598 28.12 56.6078 27.848 55.6158 27.304C54.6238 26.744 53.8478 25.984 53.2878 25.024C52.7278 24.048 52.4478 22.936 52.4478 21.688C52.4478 20.44 52.7118 19.336 53.2398 18.376C53.7838 17.416 54.5198 16.664 55.4478 16.12C56.3918 15.56 57.4478 15.28 58.6158 15.28C59.7998 15.28 60.8478 15.552 61.7598 16.096C62.6878 16.624 63.4158 17.376 63.9438 18.352C64.4718 19.312 64.7358 20.424 64.7358 21.688C64.7358 21.768 64.7278 21.856 64.7118 21.952C64.7118 22.032 64.7118 22.12 64.7118 22.216H53.7438V20.944H63.7998L63.1278 21.448C63.1278 20.536 62.9278 19.728 62.5278 19.024C62.1438 18.304 61.6158 17.744 60.9438 17.344C60.2718 16.944 59.4958 16.744 58.6158 16.744C57.7518 16.744 56.9758 16.944 56.2878 17.344C55.5998 17.744 55.0638 18.304 54.6798 19.024C54.2958 19.744 54.1038 20.568 54.1038 21.496V21.76C54.1038 22.72 54.3118 23.568 54.7278 24.304C55.1598 25.024 55.7518 25.592 56.5038 26.008C57.2718 26.408 58.1438 26.608 59.1198 26.608C59.8878 26.608 60.5998 26.472 61.2558 26.2C61.9278 25.928 62.5038 25.512 62.9838 24.952L63.9438 26.056C63.3838 26.728 62.6798 27.24 61.8318 27.592C60.9998 27.944 60.0798 28.12 59.0718 28.12ZM75.7486 28V25.216L75.6766 24.76V20.104C75.6766 19.032 75.3726 18.208 74.7646 17.632C74.1726 17.056 73.2846 16.768 72.1006 16.768C71.2846 16.768 70.5086 16.904 69.7726 17.176C69.0366 17.448 68.4126 17.808 67.9006 18.256L67.1326 16.984C67.7726 16.44 68.5406 16.024 69.4366 15.736C70.3326 15.432 71.2766 15.28 72.2686 15.28C73.9006 15.28 75.1566 15.688 76.0366 16.504C76.9326 17.304 77.3806 18.528 77.3806 20.176V28H75.7486ZM71.4046 28.12C70.4606 28.12 69.6366 27.968 68.9326 27.664C68.2446 27.344 67.7166 26.912 67.3486 26.368C66.9806 25.808 66.7966 25.168 66.7966 24.448C66.7966 23.792 66.9486 23.2 67.2526 22.672C67.5726 22.128 68.0846 21.696 68.7886 21.376C69.5086 21.04 70.4686 20.872 71.6686 20.872H76.0126V22.144H71.7166C70.5006 22.144 69.6526 22.36 69.1726 22.792C68.7086 23.224 68.4766 23.76 68.4766 24.4C68.4766 25.12 68.7566 25.696 69.3166 26.128C69.8766 26.56 70.6606 26.776 71.6686 26.776C72.6286 26.776 73.4526 26.56 74.1406 26.128C74.8446 25.68 75.3566 25.04 75.6766 24.208L76.0606 25.384C75.7406 26.216 75.1806 26.88 74.3806 27.376C73.5966 27.872 72.6046 28.12 71.4046 28.12ZM87.0248 28.12C85.8248 28.12 84.7448 27.848 83.7848 27.304C82.8408 26.76 82.0968 26.008 81.5528 25.048C81.0088 24.072 80.7368 22.952 80.7368 21.688C80.7368 20.408 81.0088 19.288 81.5528 18.328C82.0968 17.368 82.8408 16.624 83.7848 16.096C84.7448 15.552 85.8248 15.28 87.0248 15.28C88.1288 15.28 89.1128 15.528 89.9768 16.024C90.8568 16.52 91.5528 17.248 92.0648 18.208C92.5928 19.152 92.8568 20.312 92.8568 21.688C92.8568 23.048 92.6008 24.208 92.0888 25.168C91.5768 26.128 90.8808 26.864 90.0008 27.376C89.1368 27.872 88.1448 28.12 87.0248 28.12ZM87.1448 26.608C88.0408 26.608 88.8408 26.408 89.5448 26.008C90.2648 25.592 90.8248 25.016 91.2248 24.28C91.6408 23.528 91.8488 22.664 91.8488 21.688C91.8488 20.696 91.6408 19.832 91.2248 19.096C90.8248 18.36 90.2648 17.792 89.5448 17.392C88.8408 16.976 88.0408 16.768 87.1448 16.768C86.2648 16.768 85.4728 16.976 84.7688 17.392C84.0648 17.792 83.5048 18.36 83.0888 19.096C82.6728 19.832 82.4648 20.696 82.4648 21.688C82.4648 22.664 82.6728 23.528 83.0888 24.28C83.5048 25.016 84.0648 25.592 84.7688 26.008C85.4728 26.408 86.2648 26.608 87.1448 26.608ZM91.8968 28V24.208L92.0648 21.664L91.8248 19.12V10.192H93.5288V28H91.8968ZM98.2744 28V15.4H99.9784V28H98.2744ZM99.1384 12.616C98.7864 12.616 98.4904 12.496 98.2504 12.256C98.0104 12.016 97.8904 11.728 97.8904 11.392C97.8904 11.056 98.0104 10.776 98.2504 10.552C98.4904 10.312 98.7864 10.192 99.1384 10.192C99.4904 10.192 99.7864 10.304 100.026 10.528C100.266 10.752 100.386 11.032 100.386 11.368C100.386 11.72 100.266 12.016 100.026 12.256C99.8024 12.496 99.5064 12.616 99.1384 12.616ZM111.152 15.28C112.176 15.28 113.072 15.48 113.84 15.88C114.624 16.264 115.232 16.856 115.664 17.656C116.112 18.456 116.336 19.464 116.336 20.68V28H114.632V20.848C114.632 19.52 114.296 18.52 113.624 17.848C112.968 17.16 112.04 16.816 110.84 16.816C109.944 16.816 109.16 17 108.488 17.368C107.832 17.72 107.32 18.24 106.952 18.928C106.6 19.6 106.424 20.416 106.424 21.376V28H104.72V15.4H106.352V18.856L106.088 18.208C106.488 17.296 107.128 16.584 108.008 16.072C108.888 15.544 109.936 15.28 111.152 15.28ZM126.315 32.776C125.163 32.776 124.059 32.608 123.003 32.272C121.947 31.936 121.091 31.456 120.435 30.832L121.299 29.536C121.891 30.064 122.619 30.48 123.483 30.784C124.363 31.104 125.291 31.264 126.267 31.264C127.867 31.264 129.043 30.888 129.795 30.136C130.547 29.4 130.923 28.248 130.923 26.68V23.536L131.163 21.376L130.995 19.216V15.4H132.627V26.464C132.627 28.64 132.091 30.232 131.019 31.24C129.963 32.264 128.395 32.776 126.315 32.776ZM126.003 27.52C124.803 27.52 123.723 27.264 122.763 26.752C121.803 26.224 121.043 25.496 120.483 24.568C119.939 23.64 119.667 22.576 119.667 21.376C119.667 20.176 119.939 19.12 120.483 18.208C121.043 17.28 121.803 16.56 122.763 16.048C123.723 15.536 124.803 15.28 126.003 15.28C127.123 15.28 128.131 15.512 129.027 15.976C129.923 16.44 130.635 17.128 131.163 18.04C131.691 18.952 131.955 20.064 131.955 21.376C131.955 22.688 131.691 23.8 131.163 24.712C130.635 25.624 129.923 26.32 129.027 26.8C128.131 27.28 127.123 27.52 126.003 27.52ZM126.171 26.008C127.099 26.008 127.923 25.816 128.643 25.432C129.363 25.032 129.931 24.488 130.347 23.8C130.763 23.096 130.971 22.288 130.971 21.376C130.971 20.464 130.763 19.664 130.347 18.976C129.931 18.288 129.363 17.752 128.643 17.368C127.923 16.968 127.099 16.768 126.171 16.768C125.259 16.768 124.435 16.968 123.699 17.368C122.979 17.752 122.411 18.288 121.995 18.976C121.595 19.664 121.395 20.464 121.395 21.376C121.395 22.288 121.595 23.096 121.995 23.8C122.411 24.488 122.979 25.032 123.699 25.432C124.435 25.816 125.259 26.008 126.171 26.008ZM144.009 28V11.2H145.473L153.153 24.304H152.385L159.993 11.2H161.457V28H159.753V13.864H160.161L153.153 25.864H152.313L145.257 13.864H145.713V28H144.009ZM171.707 28.12C170.491 28.12 169.395 27.848 168.419 27.304C167.459 26.744 166.699 25.984 166.139 25.024C165.579 24.048 165.299 22.936 165.299 21.688C165.299 20.424 165.579 19.312 166.139 18.352C166.699 17.392 167.459 16.64 168.419 16.096C169.379 15.552 170.475 15.28 171.707 15.28C172.955 15.28 174.059 15.552 175.019 16.096C175.995 16.64 176.755 17.392 177.299 18.352C177.859 19.312 178.139 20.424 178.139 21.688C178.139 22.936 177.859 24.048 177.299 25.024C176.755 25.984 175.995 26.744 175.019 27.304C174.043 27.848 172.939 28.12 171.707 28.12ZM171.707 26.608C172.619 26.608 173.427 26.408 174.131 26.008C174.835 25.592 175.387 25.016 175.787 24.28C176.203 23.528 176.411 22.664 176.411 21.688C176.411 20.696 176.203 19.832 175.787 19.096C175.387 18.36 174.835 17.792 174.131 17.392C173.427 16.976 172.627 16.768 171.731 16.768C170.835 16.768 170.035 16.976 169.331 17.392C168.627 17.792 168.067 18.36 167.651 19.096C167.235 19.832 167.027 20.696 167.027 21.688C167.027 22.664 167.235 23.528 167.651 24.28C168.067 25.016 168.627 25.592 169.331 26.008C170.035 26.408 170.827 26.608 171.707 26.608ZM186.634 28.12C185.434 28.12 184.354 27.848 183.394 27.304C182.45 26.76 181.706 26.008 181.162 25.048C180.618 24.072 180.346 22.952 180.346 21.688C180.346 20.408 180.618 19.288 181.162 18.328C181.706 17.368 182.45 16.624 183.394 16.096C184.354 15.552 185.434 15.28 186.634 15.28C187.738 15.28 188.722 15.528 189.586 16.024C190.466 16.52 191.162 17.248 191.674 18.208C192.202 19.152 192.466 20.312 192.466 21.688C192.466 23.048 192.21 24.208 191.698 25.168C191.186 26.128 190.49 26.864 189.61 27.376C188.746 27.872 187.754 28.12 186.634 28.12ZM186.754 26.608C187.65 26.608 188.45 26.408 189.154 26.008C189.874 25.592 190.434 25.016 190.834 24.28C191.25 23.528 191.458 22.664 191.458 21.688C191.458 20.696 191.25 19.832 190.834 19.096C190.434 18.36 189.874 17.792 189.154 17.392C188.45 16.976 187.65 16.768 186.754 16.768C185.874 16.768 185.082 16.976 184.378 17.392C183.674 17.792 183.114 18.36 182.698 19.096C182.282 19.832 182.074 20.696 182.074 21.688C182.074 22.664 182.282 23.528 182.698 24.28C183.114 25.016 183.674 25.592 184.378 26.008C185.082 26.408 185.874 26.608 186.754 26.608ZM191.506 28V24.208L191.674 21.664L191.434 19.12V10.192H193.138V28H191.506ZM203.236 28.12C201.924 28.12 200.772 27.848 199.78 27.304C198.788 26.744 198.012 25.984 197.452 25.024C196.892 24.048 196.612 22.936 196.612 21.688C196.612 20.44 196.876 19.336 197.404 18.376C197.948 17.416 198.684 16.664 199.612 16.12C200.556 15.56 201.612 15.28 202.78 15.28C203.964 15.28 205.012 15.552 205.924 16.096C206.852 16.624 207.58 17.376 208.108 18.352C208.636 19.312 208.9 20.424 208.9 21.688C208.9 21.768 208.892 21.856 208.876 21.952C208.876 22.032 208.876 22.12 208.876 22.216H197.908V20.944H207.964L207.292 21.448C207.292 20.536 207.092 19.728 206.692 19.024C206.308 18.304 205.78 17.744 205.108 17.344C204.436 16.944 203.66 16.744 202.78 16.744C201.916 16.744 201.14 16.944 200.452 17.344C199.764 17.744 199.228 18.304 198.844 19.024C198.46 19.744 198.268 20.568 198.268 21.496V21.76C198.268 22.72 198.476 23.568 198.892 24.304C199.324 25.024 199.916 25.592 200.668 26.008C201.436 26.408 202.308 26.608 203.284 26.608C204.052 26.608 204.764 26.472 205.42 26.2C206.092 25.928 206.668 25.512 207.148 24.952L208.108 26.056C207.548 26.728 206.844 27.24 205.996 27.592C205.164 27.944 204.244 28.12 203.236 28.12Z" fill="#D32EFF"/>
<g clip-path="url(#clip0_179_29)">
<path d="M12 12.5C7 12.5 2.73 15.61 1 20C2.73 24.39 7 27.5 12 27.5C17 27.5 21.27 24.39 23 20C21.27 15.61 17 12.5 12 12.5ZM12 25C9.24 25 7 22.76 7 20C7 17.24 9.24 15 12 15C14.76 15 17 17.24 17 20C17 22.76 14.76 25 12 25ZM12 17C10.34 17 9 18.34 9 20C9 21.66 10.34 23 12 23C13.66 23 15 21.66 15 20C15 18.34 13.66 17 12 17Z" fill="#D32EFF"/>
</g>
<defs>
<clipPath id="clip0_179_29">
<rect width="24" height="24" fill="white" transform="translate(0 8)"/>
</clipPath>
</defs>
</svg>
